<svg width="136" height="41" viewBox="0 0 136 41" fill="none" xmlns="http://www.w3.org/2000/svg">
<rect width="136" height="41" fill="black"/>
<path d="M13.5682 16.1818H16.4659L18.8949 19.3778L19.5341 20.2301L23.1562 25.0455H20.2585L17.8722 21.8494L17.2756 21.0398L13.5682 16.1818ZM24.0511 12.0909C24.0511 14.392 23.6357 16.3807 22.8047 18.0568C21.9737 19.733 20.8338 21.0256 19.3849 21.9347C17.9361 22.8438 16.2813 23.2983 14.4205 23.2983C12.5597 23.2983 10.9048 22.8438 9.45597 21.9347C8.0071 21.0256 6.86719 19.733 6.03622 18.0568C5.20526 16.3807 4.78977 14.392 4.78977 12.0909C4.78977 9.78977 5.20526 7.80114 6.03622 6.125C6.86719 4.44886 8.0071 3.15625 9.45597 2.24716C10.9048 1.33807 12.5597 0.883522 14.4205 0.883522C16.2813 0.883522 17.9361 1.33807 19.3849 2.24716C20.8338 3.15625 21.9737 4.44886 22.8047 6.125C23.6357 7.80114 24.0511 9.78977 24.0511 12.0909ZM21.4943 12.0909C21.4943 10.2017 21.1783 8.60724 20.5462 7.30753C19.9212 6.00781 19.0724 5.02415 18 4.35653C16.9347 3.68892 15.7415 3.35511 14.4205 3.35511C13.0994 3.35511 11.9027 3.68892 10.8303 4.35653C9.76491 5.02415 8.91619 6.00781 8.28409 7.30753C7.65909 8.60724 7.34659 10.2017 7.34659 12.0909C7.34659 13.9801 7.65909 15.5746 8.28409 16.8743C8.91619 18.174 9.76491 19.1577 10.8303 19.8253C11.9027 20.4929 13.0994 20.8267 14.4205 20.8267C15.7415 20.8267 16.9347 20.4929 18 19.8253C19.0724 19.1577 19.9212 18.174 20.5462 16.8743C21.1783 15.5746 21.4943 13.9801 21.4943 12.0909ZM32.4567 23L26.4908 1.18182H29.1754L33.7351 18.9517H33.9482L38.593 1.18182H41.576L46.2209 18.9517H46.4339L50.9936 1.18182H53.6783L47.7124 23H44.9851L40.1697 5.61364H39.9993L35.1839 23H32.4567ZM56.9702 23V1.18182H70.1378V3.52557H59.6122V10.8977H69.456V13.2415H59.6122V20.6562H70.3082V23H56.9702ZM74.8999 23V1.18182H82.272C83.9766 1.18182 85.3757 1.47301 86.4695 2.0554C87.5632 2.63068 88.3729 3.42258 88.8984 4.43111C89.424 5.43963 89.6868 6.58665 89.6868 7.87216C89.6868 9.15767 89.424 10.2976 88.8984 11.2919C88.3729 12.2862 87.5668 13.0675 86.4801 13.6357C85.3935 14.1967 84.005 14.4773 82.3146 14.4773H76.3487V12.0909H82.2294C83.3942 12.0909 84.3317 11.9205 85.0419 11.5795C85.7592 11.2386 86.2777 10.7557 86.5973 10.1307C86.924 9.49858 87.0874 8.74574 87.0874 7.87216C87.0874 6.99858 86.924 6.23508 86.5973 5.58168C86.2706 4.92827 85.7486 4.42401 85.0312 4.06889C84.3139 3.70668 83.3658 3.52557 82.1868 3.52557H77.5419V23H74.8999ZM85.1697 13.1989L90.5391 23H87.4709L82.1868 13.1989H85.1697ZM92.8961 3.52557V1.18182H109.26V3.52557H102.399V23H99.7569V3.52557H92.8961ZM111.462 1.18182H114.488L120.539 11.3665H120.795L126.846 1.18182H129.871L121.988 14.0085V23H119.346V14.0085L111.462 1.18182Z" fill="#F56C0E"/>
<path d="M3.96875 38V30H8.76563V30.8594H4.9375V33.5625H8.40625V34.4219H4.9375V38H3.96875ZM12.0654 38.1406C11.6852 38.1406 11.3402 38.069 11.0303 37.9258C10.7204 37.7799 10.4743 37.5703 10.292 37.2969C10.1097 37.0208 10.0186 36.6875 10.0186 36.2969C10.0186 35.9531 10.0863 35.6745 10.2217 35.4609C10.3571 35.2448 10.5381 35.0755 10.7646 34.9531C10.9912 34.8307 11.2412 34.7396 11.5146 34.6797C11.7907 34.6172 12.068 34.5677 12.3467 34.5313C12.7113 34.4844 13.0068 34.4492 13.2334 34.4258C13.4626 34.3997 13.6292 34.3568 13.7334 34.2969C13.8402 34.237 13.8936 34.1328 13.8936 33.9844V33.9531C13.8936 33.5677 13.7881 33.2682 13.5771 33.0547C13.3688 32.8411 13.0524 32.7344 12.6279 32.7344C12.1878 32.7344 11.8428 32.8307 11.5928 33.0234C11.3428 33.2161 11.167 33.4219 11.0654 33.6406L10.1904 33.3281C10.3467 32.9635 10.555 32.6797 10.8154 32.4766C11.0785 32.2708 11.3649 32.1276 11.6748 32.0469C11.9873 31.9635 12.2946 31.9219 12.5967 31.9219C12.7894 31.9219 13.0107 31.9453 13.2607 31.9922C13.5133 32.0365 13.7568 32.1289 13.9912 32.2695C14.2282 32.4102 14.4248 32.6224 14.5811 32.9062C14.7373 33.1901 14.8154 33.5703 14.8154 34.0469V38H13.8936V37.1875H13.8467C13.7842 37.3177 13.68 37.457 13.5342 37.6055C13.3883 37.7539 13.1943 37.8802 12.9521 37.9844C12.71 38.0885 12.4144 38.1406 12.0654 38.1406ZM12.2061 37.3125C12.5706 37.3125 12.8779 37.2409 13.1279 37.0977C13.3805 36.9544 13.5706 36.7695 13.6982 36.543C13.8285 36.3164 13.8936 36.0781 13.8936 35.8281V34.9844C13.8545 35.0312 13.7686 35.0742 13.6357 35.1133C13.5055 35.1497 13.3545 35.1823 13.1826 35.2109C13.0133 35.237 12.848 35.2604 12.6865 35.2812C12.5277 35.2995 12.3988 35.3151 12.2998 35.3281C12.0602 35.3594 11.8363 35.4102 11.6279 35.4805C11.4222 35.5482 11.2555 35.651 11.1279 35.7891C11.0029 35.9245 10.9404 36.1094 10.9404 36.3437C10.9404 36.6641 11.0589 36.9062 11.2959 37.0703C11.5355 37.2318 11.8389 37.3125 12.2061 37.3125ZM16.498 38V32H17.3887V32.9375H17.4668C17.5918 32.6172 17.7936 32.3685 18.0723 32.1914C18.3509 32.0117 18.6855 31.9219 19.0762 31.9219C19.472 31.9219 19.8014 32.0117 20.0645 32.1914C20.3301 32.3685 20.5371 32.6172 20.6855 32.9375H20.748C20.9017 32.6276 21.1322 32.3815 21.4395 32.1992C21.7467 32.0143 22.1152 31.9219 22.5449 31.9219C23.0814 31.9219 23.5202 32.0898 23.8613 32.4258C24.2025 32.7591 24.373 33.2786 24.373 33.9844V38H23.4512V33.9844C23.4512 33.5417 23.3301 33.2253 23.0879 33.0352C22.8457 32.8451 22.5605 32.75 22.2324 32.75C21.8105 32.75 21.4837 32.8776 21.252 33.1328C21.0202 33.3854 20.9043 33.7057 20.9043 34.0937V38H19.9668V33.8906C19.9668 33.5495 19.8561 33.2747 19.6348 33.0664C19.4134 32.8555 19.1283 32.75 18.7793 32.75C18.5397 32.75 18.3158 32.8138 18.1074 32.9414C17.9017 33.069 17.735 33.2461 17.6074 33.4727C17.4824 33.6966 17.4199 33.9557 17.4199 34.25V38H16.498ZM26.0586 38V32H26.9805V38H26.0586ZM26.5273 31C26.3477 31 26.1927 30.9388 26.0625 30.8164C25.9349 30.694 25.8711 30.5469 25.8711 30.375C25.8711 30.2031 25.9349 30.056 26.0625 29.9336C26.1927 29.8112 26.3477 29.75 26.5273 29.75C26.707 29.75 26.8607 29.8112 26.9883 29.9336C27.1185 30.056 27.1836 30.2031 27.1836 30.375C27.1836 30.5469 27.1185 30.694 26.9883 30.8164C26.8607 30.9388 26.707 31 26.5273 31ZM29.5908 30V38H28.6689V30H29.5908ZM31.873 40.25C31.7168 40.25 31.5775 40.237 31.4551 40.2109C31.3327 40.1875 31.248 40.1641 31.2012 40.1406L31.4355 39.3281C31.6595 39.3854 31.8574 39.4063 32.0293 39.3906C32.2012 39.375 32.3535 39.2982 32.4863 39.1602C32.6217 39.0247 32.7454 38.8047 32.8574 38.5L33.0293 38.0313L30.8105 32H31.8105L33.4668 36.7812H33.5293L35.1855 32H36.1855L33.6387 38.875C33.5241 39.1849 33.3822 39.4414 33.2129 39.6445C33.0436 39.8503 32.847 40.0026 32.623 40.1016C32.4017 40.2005 32.1517 40.25 31.873 40.25ZM37.6982 38.0625C37.5055 38.0625 37.3402 37.9935 37.2021 37.8555C37.0641 37.7174 36.9951 37.5521 36.9951 37.3594C36.9951 37.1667 37.0641 37.0013 37.2021 36.8633C37.3402 36.7253 37.5055 36.6562 37.6982 36.6562C37.891 36.6562 38.0563 36.7253 38.1943 36.8633C38.3324 37.0013 38.4014 37.1667 38.4014 37.3594C38.4014 37.487 38.3688 37.6042 38.3037 37.7109C38.2412 37.8177 38.1566 37.9036 38.0498 37.9687C37.9456 38.0313 37.8285 38.0625 37.6982 38.0625ZM43.2744 38V30H44.2432V33.5625H48.5088V30H49.4775V38H48.5088V34.4219H44.2432V38H43.2744ZM53.7295 38.125C53.1878 38.125 52.7126 37.9961 52.3037 37.7383C51.8975 37.4805 51.5798 37.1198 51.3506 36.6562C51.124 36.1927 51.0107 35.651 51.0107 35.0312C51.0107 34.4062 51.124 33.8607 51.3506 33.3945C51.5798 32.9284 51.8975 32.5664 52.3037 32.3086C52.7126 32.0508 53.1878 31.9219 53.7295 31.9219C54.2712 31.9219 54.7451 32.0508 55.1514 32.3086C55.5602 32.5664 55.8779 32.9284 56.1045 33.3945C56.3337 33.8607 56.4482 34.4062 56.4482 35.0312C56.4482 35.651 56.3337 36.1927 56.1045 36.6562C55.8779 37.1198 55.5602 37.4805 55.1514 37.7383C54.7451 37.9961 54.2712 38.125 53.7295 38.125ZM53.7295 37.2969C54.141 37.2969 54.4795 37.1914 54.7451 36.9805C55.0107 36.7695 55.2074 36.4922 55.335 36.1484C55.4626 35.8047 55.5264 35.4323 55.5264 35.0312C55.5264 34.6302 55.4626 34.2565 55.335 33.9102C55.2074 33.5638 55.0107 33.2839 54.7451 33.0703C54.4795 32.8568 54.141 32.75 53.7295 32.75C53.318 32.75 52.9795 32.8568 52.7139 33.0703C52.4482 33.2839 52.2516 33.5638 52.124 33.9102C51.9964 34.2565 51.9326 34.6302 51.9326 35.0312C51.9326 35.4323 51.9964 35.8047 52.124 36.1484C52.2516 36.4922 52.4482 36.7695 52.7139 36.9805C52.9795 37.1914 53.318 37.2969 53.7295 37.2969ZM57.8555 38V32H58.7461V32.9375H58.8242C58.9492 32.6172 59.151 32.3685 59.4297 32.1914C59.7083 32.0117 60.043 31.9219 60.4336 31.9219C60.8294 31.9219 61.1589 32.0117 61.4219 32.1914C61.6875 32.3685 61.8945 32.6172 62.043 32.9375H62.1055C62.2591 32.6276 62.4896 32.3815 62.7969 32.1992C63.1042 32.0143 63.4727 31.9219 63.9023 31.9219C64.4388 31.9219 64.8776 32.0898 65.2188 32.4258C65.5599 32.7591 65.7305 33.2786 65.7305 33.9844V38H64.8086V33.9844C64.8086 33.5417 64.6875 33.2253 64.4453 33.0352C64.2031 32.8451 63.918 32.75 63.5898 32.75C63.168 32.75 62.8411 32.8776 62.6094 33.1328C62.3776 33.3854 62.2617 33.7057 62.2617 34.0937V38H61.3242V33.8906C61.3242 33.5495 61.2135 33.2747 60.9922 33.0664C60.7708 32.8555 60.4857 32.75 60.1367 32.75C59.8971 32.75 59.6732 32.8138 59.4648 32.9414C59.2591 33.069 59.0924 33.2461 58.9648 33.4727C58.8398 33.6966 58.7773 33.9557 58.7773 34.25V38H57.8555ZM69.9316 38.125C69.3535 38.125 68.8548 37.9974 68.4355 37.7422C68.0189 37.4844 67.6973 37.125 67.4707 36.6641C67.2467 36.2005 67.1348 35.6615 67.1348 35.0469C67.1348 34.4323 67.2467 33.8906 67.4707 33.4219C67.6973 32.9505 68.0124 32.5833 68.416 32.3203C68.8223 32.0547 69.2962 31.9219 69.8379 31.9219C70.1504 31.9219 70.459 31.974 70.7637 32.0781C71.0684 32.1823 71.3457 32.3516 71.5957 32.5859C71.8457 32.8177 72.0449 33.125 72.1934 33.5078C72.3418 33.8906 72.416 34.362 72.416 34.9219V35.3125H67.791V34.5156H71.4785C71.4785 34.1771 71.4108 33.875 71.2754 33.6094C71.1426 33.3437 70.9525 33.1341 70.7051 32.9805C70.4603 32.8268 70.1712 32.75 69.8379 32.75C69.4707 32.75 69.153 32.8411 68.8848 33.0234C68.6191 33.2031 68.4147 33.4375 68.2715 33.7266C68.1283 34.0156 68.0566 34.3255 68.0566 34.6562V35.1875C68.0566 35.6406 68.1348 36.0247 68.291 36.3398C68.4499 36.6523 68.6699 36.8906 68.9512 37.0547C69.2324 37.2161 69.5592 37.2969 69.9316 37.2969C70.1738 37.2969 70.3926 37.263 70.5879 37.1953C70.7858 37.125 70.9564 37.0208 71.0996 36.8828C71.2428 36.7422 71.3535 36.5677 71.4316 36.3594L72.3223 36.6094C72.2285 36.9115 72.071 37.1771 71.8496 37.4062C71.6283 37.6328 71.3548 37.8099 71.0293 37.9375C70.7038 38.0625 70.3379 38.125 69.9316 38.125ZM74.4902 38.0625C74.2975 38.0625 74.1322 37.9935 73.9941 37.8555C73.8561 37.7174 73.7871 37.5521 73.7871 37.3594C73.7871 37.1667 73.8561 37.0013 73.9941 36.8633C74.1322 36.7253 74.2975 36.6562 74.4902 36.6562C74.6829 36.6562 74.8483 36.7253 74.9863 36.8633C75.1243 37.0013 75.1934 37.1667 75.1934 37.3594C75.1934 37.487 75.1608 37.6042 75.0957 37.7109C75.0332 37.8177 74.9486 37.9036 74.8418 37.9687C74.7376 38.0313 74.6204 38.0625 74.4902 38.0625ZM80.0664 38V30H81.0352V33.5625H85.3008V30H86.2695V38H85.3008V34.4219H81.0352V38H80.0664ZM89.8496 38.1406C89.4694 38.1406 89.1243 38.069 88.8145 37.9258C88.5046 37.7799 88.2585 37.5703 88.0762 37.2969C87.8939 37.0208 87.8027 36.6875 87.8027 36.2969C87.8027 35.9531 87.8704 35.6745 88.0059 35.4609C88.1413 35.2448 88.3223 35.0755 88.5488 34.9531C88.7754 34.8307 89.0254 34.7396 89.2988 34.6797C89.5749 34.6172 89.8522 34.5677 90.1309 34.5313C90.4954 34.4844 90.791 34.4492 91.0176 34.4258C91.2467 34.3997 91.4134 34.3568 91.5176 34.2969C91.6243 34.237 91.6777 34.1328 91.6777 33.9844V33.9531C91.6777 33.5677 91.5723 33.2682 91.3613 33.0547C91.153 32.8411 90.8366 32.7344 90.4121 32.7344C89.972 32.7344 89.627 32.8307 89.377 33.0234C89.127 33.2161 88.9512 33.4219 88.8496 33.6406L87.9746 33.3281C88.1309 32.9635 88.3392 32.6797 88.5996 32.4766C88.8626 32.2708 89.1491 32.1276 89.459 32.0469C89.7715 31.9635 90.0788 31.9219 90.3809 31.9219C90.5736 31.9219 90.7949 31.9453 91.0449 31.9922C91.2975 32.0365 91.541 32.1289 91.7754 32.2695C92.0124 32.4102 92.209 32.6224 92.3652 32.9062C92.5215 33.1901 92.5996 33.5703 92.5996 34.0469V38H91.6777V37.1875H91.6309C91.5684 37.3177 91.4642 37.457 91.3184 37.6055C91.1725 37.7539 90.9785 37.8802 90.7363 37.9844C90.4941 38.0885 90.1986 38.1406 89.8496 38.1406ZM89.9902 37.3125C90.3548 37.3125 90.6621 37.2409 90.9121 37.0977C91.1647 36.9544 91.3548 36.7695 91.4824 36.543C91.6126 36.3164 91.6777 36.0781 91.6777 35.8281V34.9844C91.6387 35.0312 91.5527 35.0742 91.4199 35.1133C91.2897 35.1497 91.1387 35.1823 90.9668 35.2109C90.7975 35.237 90.6322 35.2604 90.4707 35.2812C90.3118 35.2995 90.1829 35.3151 90.084 35.3281C89.8444 35.3594 89.6204 35.4102 89.4121 35.4805C89.2064 35.5482 89.0397 35.651 88.9121 35.7891C88.7871 35.9245 88.7246 36.1094 88.7246 36.3437C88.7246 36.6641 88.8431 36.9062 89.0801 37.0703C89.3197 37.2318 89.623 37.3125 89.9902 37.3125ZM94.2822 40.25V32H95.1729V32.9531H95.2822C95.3499 32.849 95.4437 32.7161 95.5635 32.5547C95.6859 32.3906 95.8604 32.2448 96.0869 32.1172C96.3161 31.987 96.626 31.9219 97.0166 31.9219C97.5218 31.9219 97.9671 32.0482 98.3525 32.3008C98.738 32.5534 99.0387 32.9115 99.2549 33.375C99.471 33.8385 99.5791 34.3854 99.5791 35.0156C99.5791 35.651 99.471 36.2018 99.2549 36.668C99.0387 37.1315 98.7393 37.4909 98.3564 37.7461C97.9736 37.9987 97.5322 38.125 97.0322 38.125C96.6468 38.125 96.3382 38.0612 96.1064 37.9336C95.8747 37.8034 95.6963 37.6562 95.5713 37.4922C95.4463 37.3255 95.3499 37.1875 95.2822 37.0781H95.2041V40.25H94.2822ZM95.1885 35C95.1885 35.4531 95.2549 35.8529 95.3877 36.1992C95.5205 36.543 95.7145 36.8125 95.9697 37.0078C96.2249 37.2005 96.5374 37.2969 96.9072 37.2969C97.2926 37.2969 97.6143 37.1953 97.8721 36.9922C98.1325 36.7865 98.3278 36.5104 98.458 36.1641C98.5908 35.8151 98.6572 35.4271 98.6572 35C98.6572 34.5781 98.5921 34.1979 98.4619 33.8594C98.3343 33.5182 98.1403 33.2487 97.8799 33.0508C97.6221 32.8503 97.2979 32.75 96.9072 32.75C96.5322 32.75 96.2171 32.8451 95.9619 33.0352C95.7067 33.2227 95.514 33.4857 95.3838 33.8242C95.2536 34.1602 95.1885 34.5521 95.1885 35ZM100.985 40.25V32H101.876V32.9531H101.985C102.053 32.849 102.147 32.7161 102.267 32.5547C102.389 32.3906 102.563 32.2448 102.79 32.1172C103.019 31.987 103.329 31.9219 103.72 31.9219C104.225 31.9219 104.67 32.0482 105.056 32.3008C105.441 32.5534 105.742 32.9115 105.958 33.375C106.174 33.8385 106.282 34.3854 106.282 35.0156C106.282 35.651 106.174 36.2018 105.958 36.668C105.742 37.1315 105.442 37.4909 105.06 37.7461C104.677 37.9987 104.235 38.125 103.735 38.125C103.35 38.125 103.041 38.0612 102.81 37.9336C102.578 37.8034 102.399 37.6562 102.274 37.4922C102.149 37.3255 102.053 37.1875 101.985 37.0781H101.907V40.25H100.985ZM101.892 35C101.892 35.4531 101.958 35.8529 102.091 36.1992C102.224 36.543 102.418 36.8125 102.673 37.0078C102.928 37.2005 103.241 37.2969 103.61 37.2969C103.996 37.2969 104.317 37.1953 104.575 36.9922C104.836 36.7865 105.031 36.5104 105.161 36.1641C105.294 35.8151 105.36 35.4271 105.36 35C105.36 34.5781 105.295 34.1979 105.165 33.8594C105.037 33.5182 104.843 33.2487 104.583 33.0508C104.325 32.8503 104.001 32.75 103.61 32.75C103.235 32.75 102.92 32.8451 102.665 33.0352C102.41 33.2227 102.217 33.4857 102.087 33.8242C101.957 34.1602 101.892 34.5521 101.892 35ZM107.688 38V32H108.61V38H107.688ZM108.157 31C107.978 31 107.823 30.9388 107.692 30.8164C107.565 30.694 107.501 30.5469 107.501 30.375C107.501 30.2031 107.565 30.056 107.692 29.9336C107.823 29.8112 107.978 29.75 108.157 29.75C108.337 29.75 108.491 29.8112 108.618 29.9336C108.748 30.056 108.813 30.2031 108.813 30.375C108.813 30.5469 108.748 30.694 108.618 30.8164C108.491 30.9388 108.337 31 108.157 31ZM111.221 34.3906V38H110.299V32H111.189V32.9375H111.268C111.408 32.6328 111.622 32.388 111.908 32.2031C112.195 32.0156 112.564 31.9219 113.018 31.9219C113.424 31.9219 113.779 32.0052 114.084 32.1719C114.389 32.3359 114.626 32.5859 114.795 32.9219C114.964 33.2552 115.049 33.6771 115.049 34.1875V38H114.127V34.25C114.127 33.7786 114.005 33.4115 113.76 33.1484C113.515 32.8828 113.179 32.75 112.752 32.75C112.458 32.75 112.195 32.8138 111.963 32.9414C111.734 33.069 111.553 33.2552 111.42 33.5C111.287 33.7448 111.221 34.0417 111.221 34.3906ZM119.249 38.125C118.671 38.125 118.172 37.9974 117.753 37.7422C117.336 37.4844 117.015 37.125 116.788 36.6641C116.564 36.2005 116.452 35.6615 116.452 35.0469C116.452 34.4323 116.564 33.8906 116.788 33.4219C117.015 32.9505 117.33 32.5833 117.733 32.3203C118.14 32.0547 118.614 31.9219 119.155 31.9219C119.468 31.9219 119.776 31.974 120.081 32.0781C120.386 32.1823 120.663 32.3516 120.913 32.5859C121.163 32.8177 121.362 33.125 121.511 33.5078C121.659 33.8906 121.733 34.362 121.733 34.9219V35.3125H117.108V34.5156H120.796C120.796 34.1771 120.728 33.875 120.593 33.6094C120.46 33.3437 120.27 33.1341 120.022 32.9805C119.778 32.8268 119.489 32.75 119.155 32.75C118.788 32.75 118.47 32.8411 118.202 33.0234C117.937 33.2031 117.732 33.4375 117.589 33.7266C117.446 34.0156 117.374 34.3255 117.374 34.6562V35.1875C117.374 35.6406 117.452 36.0247 117.608 36.3398C117.767 36.6523 117.987 36.8906 118.269 37.0547C118.55 37.2161 118.877 37.2969 119.249 37.2969C119.491 37.2969 119.71 37.263 119.905 37.1953C120.103 37.125 120.274 37.0208 120.417 36.8828C120.56 36.7422 120.671 36.5677 120.749 36.3594L121.64 36.6094C121.546 36.9115 121.388 37.1771 121.167 37.4062C120.946 37.6328 120.672 37.8099 120.347 37.9375C120.021 38.0625 119.655 38.125 119.249 38.125ZM127.386 33.3437L126.558 33.5781C126.506 33.4401 126.429 33.306 126.327 33.1758C126.228 33.043 126.093 32.9336 125.921 32.8477C125.749 32.7617 125.529 32.7187 125.261 32.7187C124.894 32.7187 124.588 32.8034 124.343 32.9727C124.101 33.1393 123.979 33.3516 123.979 33.6094C123.979 33.8385 124.063 34.0195 124.229 34.1523C124.396 34.2852 124.657 34.3958 125.011 34.4844L125.901 34.7031C126.438 34.8333 126.838 35.0326 127.101 35.3008C127.364 35.5664 127.495 35.9089 127.495 36.3281C127.495 36.6719 127.396 36.9792 127.198 37.25C127.003 37.5208 126.729 37.7344 126.378 37.8906C126.026 38.0469 125.618 38.125 125.151 38.125C124.539 38.125 124.033 37.9922 123.632 37.7266C123.231 37.4609 122.977 37.0729 122.87 36.5625L123.745 36.3437C123.828 36.6667 123.986 36.9089 124.218 37.0703C124.452 37.2318 124.758 37.3125 125.136 37.3125C125.565 37.3125 125.907 37.2214 126.159 37.0391C126.414 36.8542 126.542 36.6328 126.542 36.375C126.542 36.1667 126.469 35.9922 126.323 35.8516C126.177 35.7083 125.953 35.6016 125.651 35.5312L124.651 35.2969C124.102 35.1667 123.698 34.9648 123.44 34.6914C123.185 34.4154 123.058 34.0703 123.058 33.6562C123.058 33.3177 123.153 33.0182 123.343 32.7578C123.535 32.4974 123.797 32.293 124.128 32.1445C124.461 31.9961 124.839 31.9219 125.261 31.9219C125.854 31.9219 126.321 32.0521 126.659 32.3125C127 32.5729 127.243 32.9167 127.386 33.3437ZM133.133 33.3437L132.305 33.5781C132.253 33.4401 132.176 33.306 132.074 33.1758C131.975 33.043 131.84 32.9336 131.668 32.8477C131.496 32.7617 131.276 32.7187 131.008 32.7187C130.641 32.7187 130.335 32.8034 130.09 32.9727C129.848 33.1393 129.727 33.3516 129.727 33.6094C129.727 33.8385 129.81 34.0195 129.977 34.1523C130.143 34.2852 130.404 34.3958 130.758 34.4844L131.648 34.7031C132.185 34.8333 132.585 35.0326 132.848 35.3008C133.111 35.5664 133.242 35.9089 133.242 36.3281C133.242 36.6719 133.143 36.9792 132.945 37.25C132.75 37.5208 132.477 37.7344 132.125 37.8906C131.773 38.0469 131.365 38.125 130.898 38.125C130.286 38.125 129.78 37.9922 129.379 37.7266C128.978 37.4609 128.724 37.0729 128.617 36.5625L129.492 36.3437C129.576 36.6667 129.733 36.9089 129.965 37.0703C130.199 37.2318 130.505 37.3125 130.883 37.3125C131.313 37.3125 131.654 37.2214 131.906 37.0391C132.161 36.8542 132.289 36.6328 132.289 36.375C132.289 36.1667 132.216 35.9922 132.07 35.8516C131.924 35.7083 131.701 35.6016 131.398 35.5312L130.398 35.2969C129.849 35.1667 129.445 34.9648 129.188 34.6914C128.932 34.4154 128.805 34.0703 128.805 33.6562C128.805 33.3177 128.9 33.0182 129.09 32.7578C129.283 32.4974 129.544 32.293 129.875 32.1445C130.208 31.9961 130.586 31.9219 131.008 31.9219C131.602 31.9219 132.068 32.0521 132.406 32.3125C132.747 32.5729 132.99 32.9167 133.133 33.3437Z" fill="#F56C0E"/>
<rect y="27" width="136" height="0.7" fill="url(#paint0_linear_0_1)"/>
<defs>
<linearGradient id="paint0_linear_0_1" x1="68" y1="27" x2="68" y2="27.7" gradientUnits="userSpaceOnUse">
<stop stop-color="#302727"/>
<stop offset="1" stop-color="#302727" stop-opacity="0"/>
</linearGradient>
</defs>
</svg>
