<svg width="136" height="50" viewBox="0 0 136 50" fill="none" xmlns="http://www.w3.org/2000/svg">
<rect width="136" height="50" fill="#030000"/>
<path d="M13.5682 25.1818H16.4659L18.8949 28.3778L19.5341 29.2301L23.1562 34.0455H20.2585L17.8722 30.8494L17.2756 30.0398L13.5682 25.1818ZM24.0511 21.0909C24.0511 23.392 23.6357 25.3807 22.8047 27.0568C21.9737 28.733 20.8338 30.0256 19.3849 30.9347C17.9361 31.8438 16.2813 32.2983 14.4205 32.2983C12.5597 32.2983 10.9048 31.8438 9.45597 30.9347C8.0071 30.0256 6.86719 28.733 6.03622 27.0568C5.20526 25.3807 4.78977 23.392 4.78977 21.0909C4.78977 18.7898 5.20526 16.8011 6.03622 15.125C6.86719 13.4489 8.0071 12.1562 9.45597 11.2472C10.9048 10.3381 12.5597 9.88352 14.4205 9.88352C16.2813 9.88352 17.9361 10.3381 19.3849 11.2472C20.8338 12.1562 21.9737 13.4489 22.8047 15.125C23.6357 16.8011 24.0511 18.7898 24.0511 21.0909ZM21.4943 21.0909C21.4943 19.2017 21.1783 17.6072 20.5462 16.3075C19.9212 15.0078 19.0724 14.0241 18 13.3565C16.9347 12.6889 15.7415 12.3551 14.4205 12.3551C13.0994 12.3551 11.9027 12.6889 10.8303 13.3565C9.76491 14.0241 8.91619 15.0078 8.28409 16.3075C7.65909 17.6072 7.34659 19.2017 7.34659 21.0909C7.34659 22.9801 7.65909 24.5746 8.28409 25.8743C8.91619 27.174 9.76491 28.1577 10.8303 28.8253C11.9027 29.4929 13.0994 29.8267 14.4205 29.8267C15.7415 29.8267 16.9347 29.4929 18 28.8253C19.0724 28.1577 19.9212 27.174 20.5462 25.8743C21.1783 24.5746 21.4943 22.9801 21.4943 21.0909ZM32.4567 32L26.4908 10.1818H29.1754L33.7351 27.9517H33.9482L38.593 10.1818H41.576L46.2209 27.9517H46.4339L50.9936 10.1818H53.6783L47.7124 32H44.9851L40.1697 14.6136H39.9993L35.1839 32H32.4567ZM56.9702 32V10.1818H70.1378V12.5256H59.6122V19.8977H69.456V22.2415H59.6122V29.6562H70.3082V32H56.9702ZM74.8999 32V10.1818H82.272C83.9766 10.1818 85.3757 10.473 86.4695 11.0554C87.5632 11.6307 88.3729 12.4226 88.8984 13.4311C89.424 14.4396 89.6868 15.5866 89.6868 16.8722C89.6868 18.1577 89.424 19.2976 88.8984 20.2919C88.3729 21.2862 87.5668 22.0675 86.4801 22.6357C85.3935 23.1967 84.005 23.4773 82.3146 23.4773H76.3487V21.0909H82.2294C83.3942 21.0909 84.3317 20.9205 85.0419 20.5795C85.7592 20.2386 86.2777 19.7557 86.5973 19.1307C86.924 18.4986 87.0874 17.7457 87.0874 16.8722C87.0874 15.9986 86.924 15.2351 86.5973 14.5817C86.2706 13.9283 85.7486 13.424 85.0312 13.0689C84.3139 12.7067 83.3658 12.5256 82.1868 12.5256H77.5419V32H74.8999ZM85.1697 22.1989L90.5391 32H87.4709L82.1868 22.1989H85.1697ZM92.8961 12.5256V10.1818H109.26V12.5256H102.399V32H99.7569V12.5256H92.8961ZM111.462 10.1818H114.488L120.539 20.3665H120.795L126.846 10.1818H129.871L121.988 23.0085V32H119.346V23.0085L111.462 10.1818Z" fill="#F56C0E"/>
<path d="M3.96875 47V39H8.76563V39.8594H4.9375V42.5625H8.40625V43.4219H4.9375V47H3.96875ZM12.0654 47.1406C11.6852 47.1406 11.3402 47.069 11.0303 46.9258C10.7204 46.7799 10.4743 46.5703 10.292 46.2969C10.1097 46.0208 10.0186 45.6875 10.0186 45.2969C10.0186 44.9531 10.0863 44.6745 10.2217 44.4609C10.3571 44.2448 10.5381 44.0755 10.7646 43.9531C10.9912 43.8307 11.2412 43.7396 11.5146 43.6797C11.7907 43.6172 12.068 43.5677 12.3467 43.5313C12.7113 43.4844 13.0068 43.4492 13.2334 43.4258C13.4626 43.3997 13.6292 43.3568 13.7334 43.2969C13.8402 43.237 13.8936 43.1328 13.8936 42.9844V42.9531C13.8936 42.5677 13.7881 42.2682 13.5771 42.0547C13.3688 41.8411 13.0524 41.7344 12.6279 41.7344C12.1878 41.7344 11.8428 41.8307 11.5928 42.0234C11.3428 42.2161 11.167 42.4219 11.0654 42.6406L10.1904 42.3281C10.3467 41.9635 10.555 41.6797 10.8154 41.4766C11.0785 41.2708 11.3649 41.1276 11.6748 41.0469C11.9873 40.9635 12.2946 40.9219 12.5967 40.9219C12.7894 40.9219 13.0107 40.9453 13.2607 40.9922C13.5133 41.0365 13.7568 41.1289 13.9912 41.2695C14.2282 41.4102 14.4248 41.6224 14.5811 41.9062C14.7373 42.1901 14.8154 42.5703 14.8154 43.0469V47H13.8936V46.1875H13.8467C13.7842 46.3177 13.68 46.457 13.5342 46.6055C13.3883 46.7539 13.1943 46.8802 12.9521 46.9844C12.71 47.0885 12.4144 47.1406 12.0654 47.1406ZM12.2061 46.3125C12.5706 46.3125 12.8779 46.2409 13.1279 46.0977C13.3805 45.9544 13.5706 45.7695 13.6982 45.543C13.8285 45.3164 13.8936 45.0781 13.8936 44.8281V43.9844C13.8545 44.0312 13.7686 44.0742 13.6357 44.1133C13.5055 44.1497 13.3545 44.1823 13.1826 44.2109C13.0133 44.237 12.848 44.2604 12.6865 44.2812C12.5277 44.2995 12.3988 44.3151 12.2998 44.3281C12.0602 44.3594 11.8363 44.4102 11.6279 44.4805C11.4222 44.5482 11.2555 44.651 11.1279 44.7891C11.0029 44.9245 10.9404 45.1094 10.9404 45.3437C10.9404 45.6641 11.0589 45.9062 11.2959 46.0703C11.5355 46.2318 11.8389 46.3125 12.2061 46.3125ZM16.498 47V41H17.3887V41.9375H17.4668C17.5918 41.6172 17.7936 41.3685 18.0723 41.1914C18.3509 41.0117 18.6855 40.9219 19.0762 40.9219C19.472 40.9219 19.8014 41.0117 20.0645 41.1914C20.3301 41.3685 20.5371 41.6172 20.6855 41.9375H20.748C20.9017 41.6276 21.1322 41.3815 21.4395 41.1992C21.7467 41.0143 22.1152 40.9219 22.5449 40.9219C23.0814 40.9219 23.5202 41.0898 23.8613 41.4258C24.2025 41.7591 24.373 42.2786 24.373 42.9844V47H23.4512V42.9844C23.4512 42.5417 23.3301 42.2253 23.0879 42.0352C22.8457 41.8451 22.5605 41.75 22.2324 41.75C21.8105 41.75 21.4837 41.8776 21.252 42.1328C21.0202 42.3854 20.9043 42.7057 20.9043 43.0937V47H19.9668V42.8906C19.9668 42.5495 19.8561 42.2747 19.6348 42.0664C19.4134 41.8555 19.1283 41.75 18.7793 41.75C18.5397 41.75 18.3158 41.8138 18.1074 41.9414C17.9017 42.069 17.735 42.2461 17.6074 42.4727C17.4824 42.6966 17.4199 42.9557 17.4199 43.25V47H16.498ZM26.0586 47V41H26.9805V47H26.0586ZM26.5273 40C26.3477 40 26.1927 39.9388 26.0625 39.8164C25.9349 39.694 25.8711 39.5469 25.8711 39.375C25.8711 39.2031 25.9349 39.056 26.0625 38.9336C26.1927 38.8112 26.3477 38.75 26.5273 38.75C26.707 38.75 26.8607 38.8112 26.9883 38.9336C27.1185 39.056 27.1836 39.2031 27.1836 39.375C27.1836 39.5469 27.1185 39.694 26.9883 39.8164C26.8607 39.9388 26.707 40 26.5273 40ZM29.5908 39V47H28.6689V39H29.5908ZM31.873 49.25C31.7168 49.25 31.5775 49.237 31.4551 49.2109C31.3327 49.1875 31.248 49.1641 31.2012 49.1406L31.4355 48.3281C31.6595 48.3854 31.8574 48.4063 32.0293 48.3906C32.2012 48.375 32.3535 48.2982 32.4863 48.1602C32.6217 48.0247 32.7454 47.8047 32.8574 47.5L33.0293 47.0313L30.8105 41H31.8105L33.4668 45.7812H33.5293L35.1855 41H36.1855L33.6387 47.875C33.5241 48.1849 33.3822 48.4414 33.2129 48.6445C33.0436 48.8503 32.847 49.0026 32.623 49.1016C32.4017 49.2005 32.1517 49.25 31.873 49.25ZM37.6982 47.0625C37.5055 47.0625 37.3402 46.9935 37.2021 46.8555C37.0641 46.7174 36.9951 46.5521 36.9951 46.3594C36.9951 46.1667 37.0641 46.0013 37.2021 45.8633C37.3402 45.7253 37.5055 45.6562 37.6982 45.6562C37.891 45.6562 38.0563 45.7253 38.1943 45.8633C38.3324 46.0013 38.4014 46.1667 38.4014 46.3594C38.4014 46.487 38.3688 46.6042 38.3037 46.7109C38.2412 46.8177 38.1566 46.9036 38.0498 46.9687C37.9456 47.0313 37.8285 47.0625 37.6982 47.0625ZM43.2744 47V39H44.2432V42.5625H48.5088V39H49.4775V47H48.5088V43.4219H44.2432V47H43.2744ZM53.7295 47.125C53.1878 47.125 52.7126 46.9961 52.3037 46.7383C51.8975 46.4805 51.5798 46.1198 51.3506 45.6562C51.124 45.1927 51.0107 44.651 51.0107 44.0312C51.0107 43.4062 51.124 42.8607 51.3506 42.3945C51.5798 41.9284 51.8975 41.5664 52.3037 41.3086C52.7126 41.0508 53.1878 40.9219 53.7295 40.9219C54.2712 40.9219 54.7451 41.0508 55.1514 41.3086C55.5602 41.5664 55.8779 41.9284 56.1045 42.3945C56.3337 42.8607 56.4482 43.4062 56.4482 44.0312C56.4482 44.651 56.3337 45.1927 56.1045 45.6562C55.8779 46.1198 55.5602 46.4805 55.1514 46.7383C54.7451 46.9961 54.2712 47.125 53.7295 47.125ZM53.7295 46.2969C54.141 46.2969 54.4795 46.1914 54.7451 45.9805C55.0107 45.7695 55.2074 45.4922 55.335 45.1484C55.4626 44.8047 55.5264 44.4323 55.5264 44.0312C55.5264 43.6302 55.4626 43.2565 55.335 42.9102C55.2074 42.5638 55.0107 42.2839 54.7451 42.0703C54.4795 41.8568 54.141 41.75 53.7295 41.75C53.318 41.75 52.9795 41.8568 52.7139 42.0703C52.4482 42.2839 52.2516 42.5638 52.124 42.9102C51.9964 43.2565 51.9326 43.6302 51.9326 44.0312C51.9326 44.4323 51.9964 44.8047 52.124 45.1484C52.2516 45.4922 52.4482 45.7695 52.7139 45.9805C52.9795 46.1914 53.318 46.2969 53.7295 46.2969ZM57.8555 47V41H58.7461V41.9375H58.8242C58.9492 41.6172 59.151 41.3685 59.4297 41.1914C59.7083 41.0117 60.043 40.9219 60.4336 40.9219C60.8294 40.9219 61.1589 41.0117 61.4219 41.1914C61.6875 41.3685 61.8945 41.6172 62.043 41.9375H62.1055C62.2591 41.6276 62.4896 41.3815 62.7969 41.1992C63.1042 41.0143 63.4727 40.9219 63.9023 40.9219C64.4388 40.9219 64.8776 41.0898 65.2188 41.4258C65.5599 41.7591 65.7305 42.2786 65.7305 42.9844V47H64.8086V42.9844C64.8086 42.5417 64.6875 42.2253 64.4453 42.0352C64.2031 41.8451 63.918 41.75 63.5898 41.75C63.168 41.75 62.8411 41.8776 62.6094 42.1328C62.3776 42.3854 62.2617 42.7057 62.2617 43.0937V47H61.3242V42.8906C61.3242 42.5495 61.2135 42.2747 60.9922 42.0664C60.7708 41.8555 60.4857 41.75 60.1367 41.75C59.8971 41.75 59.6732 41.8138 59.4648 41.9414C59.2591 42.069 59.0924 42.2461 58.9648 42.4727C58.8398 42.6966 58.7773 42.9557 58.7773 43.25V47H57.8555ZM69.9316 47.125C69.3535 47.125 68.8548 46.9974 68.4355 46.7422C68.0189 46.4844 67.6973 46.125 67.4707 45.6641C67.2467 45.2005 67.1348 44.6615 67.1348 44.0469C67.1348 43.4323 67.2467 42.8906 67.4707 42.4219C67.6973 41.9505 68.0124 41.5833 68.416 41.3203C68.8223 41.0547 69.2962 40.9219 69.8379 40.9219C70.1504 40.9219 70.459 40.974 70.7637 41.0781C71.0684 41.1823 71.3457 41.3516 71.5957 41.5859C71.8457 41.8177 72.0449 42.125 72.1934 42.5078C72.3418 42.8906 72.416 43.362 72.416 43.9219V44.3125H67.791V43.5156H71.4785C71.4785 43.1771 71.4108 42.875 71.2754 42.6094C71.1426 42.3437 70.9525 42.1341 70.7051 41.9805C70.4603 41.8268 70.1712 41.75 69.8379 41.75C69.4707 41.75 69.153 41.8411 68.8848 42.0234C68.6191 42.2031 68.4147 42.4375 68.2715 42.7266C68.1283 43.0156 68.0566 43.3255 68.0566 43.6562V44.1875C68.0566 44.6406 68.1348 45.0247 68.291 45.3398C68.4499 45.6523 68.6699 45.8906 68.9512 46.0547C69.2324 46.2161 69.5592 46.2969 69.9316 46.2969C70.1738 46.2969 70.3926 46.263 70.5879 46.1953C70.7858 46.125 70.9564 46.0208 71.0996 45.8828C71.2428 45.7422 71.3535 45.5677 71.4316 45.3594L72.3223 45.6094C72.2285 45.9115 72.071 46.1771 71.8496 46.4062C71.6283 46.6328 71.3548 46.8099 71.0293 46.9375C70.7038 47.0625 70.3379 47.125 69.9316 47.125ZM74.4902 47.0625C74.2975 47.0625 74.1322 46.9935 73.9941 46.8555C73.8561 46.7174 73.7871 46.5521 73.7871 46.3594C73.7871 46.1667 73.8561 46.0013 73.9941 45.8633C74.1322 45.7253 74.2975 45.6562 74.4902 45.6562C74.6829 45.6562 74.8483 45.7253 74.9863 45.8633C75.1243 46.0013 75.1934 46.1667 75.1934 46.3594C75.1934 46.487 75.1608 46.6042 75.0957 46.7109C75.0332 46.8177 74.9486 46.9036 74.8418 46.9687C74.7376 47.0313 74.6204 47.0625 74.4902 47.0625ZM80.0664 47V39H81.0352V42.5625H85.3008V39H86.2695V47H85.3008V43.4219H81.0352V47H80.0664ZM89.8496 47.1406C89.4694 47.1406 89.1243 47.069 88.8145 46.9258C88.5046 46.7799 88.2585 46.5703 88.0762 46.2969C87.8939 46.0208 87.8027 45.6875 87.8027 45.2969C87.8027 44.9531 87.8704 44.6745 88.0059 44.4609C88.1413 44.2448 88.3223 44.0755 88.5488 43.9531C88.7754 43.8307 89.0254 43.7396 89.2988 43.6797C89.5749 43.6172 89.8522 43.5677 90.1309 43.5313C90.4954 43.4844 90.791 43.4492 91.0176 43.4258C91.2467 43.3997 91.4134 43.3568 91.5176 43.2969C91.6243 43.237 91.6777 43.1328 91.6777 42.9844V42.9531C91.6777 42.5677 91.5723 42.2682 91.3613 42.0547C91.153 41.8411 90.8366 41.7344 90.4121 41.7344C89.972 41.7344 89.627 41.8307 89.377 42.0234C89.127 42.2161 88.9512 42.4219 88.8496 42.6406L87.9746 42.3281C88.1309 41.9635 88.3392 41.6797 88.5996 41.4766C88.8626 41.2708 89.1491 41.1276 89.459 41.0469C89.7715 40.9635 90.0788 40.9219 90.3809 40.9219C90.5736 40.9219 90.7949 40.9453 91.0449 40.9922C91.2975 41.0365 91.541 41.1289 91.7754 41.2695C92.0124 41.4102 92.209 41.6224 92.3652 41.9062C92.5215 42.1901 92.5996 42.5703 92.5996 43.0469V47H91.6777V46.1875H91.6309C91.5684 46.3177 91.4642 46.457 91.3184 46.6055C91.1725 46.7539 90.9785 46.8802 90.7363 46.9844C90.4941 47.0885 90.1986 47.1406 89.8496 47.1406ZM89.9902 46.3125C90.3548 46.3125 90.6621 46.2409 90.9121 46.0977C91.1647 45.9544 91.3548 45.7695 91.4824 45.543C91.6126 45.3164 91.6777 45.0781 91.6777 44.8281V43.9844C91.6387 44.0312 91.5527 44.0742 91.4199 44.1133C91.2897 44.1497 91.1387 44.1823 90.9668 44.2109C90.7975 44.237 90.6322 44.2604 90.4707 44.2812C90.3118 44.2995 90.1829 44.3151 90.084 44.3281C89.8444 44.3594 89.6204 44.4102 89.4121 44.4805C89.2064 44.5482 89.0397 44.651 88.9121 44.7891C88.7871 44.9245 88.7246 45.1094 88.7246 45.3437C88.7246 45.6641 88.8431 45.9062 89.0801 46.0703C89.3197 46.2318 89.623 46.3125 89.9902 46.3125ZM94.2822 49.25V41H95.1729V41.9531H95.2822C95.3499 41.849 95.4437 41.7161 95.5635 41.5547C95.6859 41.3906 95.8604 41.2448 96.0869 41.1172C96.3161 40.987 96.626 40.9219 97.0166 40.9219C97.5218 40.9219 97.9671 41.0482 98.3525 41.3008C98.738 41.5534 99.0387 41.9115 99.2549 42.375C99.471 42.8385 99.5791 43.3854 99.5791 44.0156C99.5791 44.651 99.471 45.2018 99.2549 45.668C99.0387 46.1315 98.7393 46.4909 98.3564 46.7461C97.9736 46.9987 97.5322 47.125 97.0322 47.125C96.6468 47.125 96.3382 47.0612 96.1064 46.9336C95.8747 46.8034 95.6963 46.6562 95.5713 46.4922C95.4463 46.3255 95.3499 46.1875 95.2822 46.0781H95.2041V49.25H94.2822ZM95.1885 44C95.1885 44.4531 95.2549 44.8529 95.3877 45.1992C95.5205 45.543 95.7145 45.8125 95.9697 46.0078C96.2249 46.2005 96.5374 46.2969 96.9072 46.2969C97.2926 46.2969 97.6143 46.1953 97.8721 45.9922C98.1325 45.7865 98.3278 45.5104 98.458 45.1641C98.5908 44.8151 98.6572 44.4271 98.6572 44C98.6572 43.5781 98.5921 43.1979 98.4619 42.8594C98.3343 42.5182 98.1403 42.2487 97.8799 42.0508C97.6221 41.8503 97.2979 41.75 96.9072 41.75C96.5322 41.75 96.2171 41.8451 95.9619 42.0352C95.7067 42.2227 95.514 42.4857 95.3838 42.8242C95.2536 43.1602 95.1885 43.5521 95.1885 44ZM100.985 49.25V41H101.876V41.9531H101.985C102.053 41.849 102.147 41.7161 102.267 41.5547C102.389 41.3906 102.563 41.2448 102.79 41.1172C103.019 40.987 103.329 40.9219 103.72 40.9219C104.225 40.9219 104.67 41.0482 105.056 41.3008C105.441 41.5534 105.742 41.9115 105.958 42.375C106.174 42.8385 106.282 43.3854 106.282 44.0156C106.282 44.651 106.174 45.2018 105.958 45.668C105.742 46.1315 105.442 46.4909 105.06 46.7461C104.677 46.9987 104.235 47.125 103.735 47.125C103.35 47.125 103.041 47.0612 102.81 46.9336C102.578 46.8034 102.399 46.6562 102.274 46.4922C102.149 46.3255 102.053 46.1875 101.985 46.0781H101.907V49.25H100.985ZM101.892 44C101.892 44.4531 101.958 44.8529 102.091 45.1992C102.224 45.543 102.418 45.8125 102.673 46.0078C102.928 46.2005 103.241 46.2969 103.61 46.2969C103.996 46.2969 104.317 46.1953 104.575 45.9922C104.836 45.7865 105.031 45.5104 105.161 45.1641C105.294 44.8151 105.36 44.4271 105.36 44C105.36 43.5781 105.295 43.1979 105.165 42.8594C105.037 42.5182 104.843 42.2487 104.583 42.0508C104.325 41.8503 104.001 41.75 103.61 41.75C103.235 41.75 102.92 41.8451 102.665 42.0352C102.41 42.2227 102.217 42.4857 102.087 42.8242C101.957 43.1602 101.892 43.5521 101.892 44ZM107.688 47V41H108.61V47H107.688ZM108.157 40C107.978 40 107.823 39.9388 107.692 39.8164C107.565 39.694 107.501 39.5469 107.501 39.375C107.501 39.2031 107.565 39.056 107.692 38.9336C107.823 38.8112 107.978 38.75 108.157 38.75C108.337 38.75 108.491 38.8112 108.618 38.9336C108.748 39.056 108.813 39.2031 108.813 39.375C108.813 39.5469 108.748 39.694 108.618 39.8164C108.491 39.9388 108.337 40 108.157 40ZM111.221 43.3906V47H110.299V41H111.189V41.9375H111.268C111.408 41.6328 111.622 41.388 111.908 41.2031C112.195 41.0156 112.564 40.9219 113.018 40.9219C113.424 40.9219 113.779 41.0052 114.084 41.1719C114.389 41.3359 114.626 41.5859 114.795 41.9219C114.964 42.2552 115.049 42.6771 115.049 43.1875V47H114.127V43.25C114.127 42.7786 114.005 42.4115 113.76 42.1484C113.515 41.8828 113.179 41.75 112.752 41.75C112.458 41.75 112.195 41.8138 111.963 41.9414C111.734 42.069 111.553 42.2552 111.42 42.5C111.287 42.7448 111.221 43.0417 111.221 43.3906ZM119.249 47.125C118.671 47.125 118.172 46.9974 117.753 46.7422C117.336 46.4844 117.015 46.125 116.788 45.6641C116.564 45.2005 116.452 44.6615 116.452 44.0469C116.452 43.4323 116.564 42.8906 116.788 42.4219C117.015 41.9505 117.33 41.5833 117.733 41.3203C118.14 41.0547 118.614 40.9219 119.155 40.9219C119.468 40.9219 119.776 40.974 120.081 41.0781C120.386 41.1823 120.663 41.3516 120.913 41.5859C121.163 41.8177 121.362 42.125 121.511 42.5078C121.659 42.8906 121.733 43.362 121.733 43.9219V44.3125H117.108V43.5156H120.796C120.796 43.1771 120.728 42.875 120.593 42.6094C120.46 42.3437 120.27 42.1341 120.022 41.9805C119.778 41.8268 119.489 41.75 119.155 41.75C118.788 41.75 118.47 41.8411 118.202 42.0234C117.937 42.2031 117.732 42.4375 117.589 42.7266C117.446 43.0156 117.374 43.3255 117.374 43.6562V44.1875C117.374 44.6406 117.452 45.0247 117.608 45.3398C117.767 45.6523 117.987 45.8906 118.269 46.0547C118.55 46.2161 118.877 46.2969 119.249 46.2969C119.491 46.2969 119.71 46.263 119.905 46.1953C120.103 46.125 120.274 46.0208 120.417 45.8828C120.56 45.7422 120.671 45.5677 120.749 45.3594L121.64 45.6094C121.546 45.9115 121.388 46.1771 121.167 46.4062C120.946 46.6328 120.672 46.8099 120.347 46.9375C120.021 47.0625 119.655 47.125 119.249 47.125ZM127.386 42.3437L126.558 42.5781C126.506 42.4401 126.429 42.306 126.327 42.1758C126.228 42.043 126.093 41.9336 125.921 41.8477C125.749 41.7617 125.529 41.7187 125.261 41.7187C124.894 41.7187 124.588 41.8034 124.343 41.9727C124.101 42.1393 123.979 42.3516 123.979 42.6094C123.979 42.8385 124.063 43.0195 124.229 43.1523C124.396 43.2852 124.657 43.3958 125.011 43.4844L125.901 43.7031C126.438 43.8333 126.838 44.0326 127.101 44.3008C127.364 44.5664 127.495 44.9089 127.495 45.3281C127.495 45.6719 127.396 45.9792 127.198 46.25C127.003 46.5208 126.729 46.7344 126.378 46.8906C126.026 47.0469 125.618 47.125 125.151 47.125C124.539 47.125 124.033 46.9922 123.632 46.7266C123.231 46.4609 122.977 46.0729 122.87 45.5625L123.745 45.3437C123.828 45.6667 123.986 45.9089 124.218 46.0703C124.452 46.2318 124.758 46.3125 125.136 46.3125C125.565 46.3125 125.907 46.2214 126.159 46.0391C126.414 45.8542 126.542 45.6328 126.542 45.375C126.542 45.1667 126.469 44.9922 126.323 44.8516C126.177 44.7083 125.953 44.6016 125.651 44.5312L124.651 44.2969C124.102 44.1667 123.698 43.9648 123.44 43.6914C123.185 43.4154 123.058 43.0703 123.058 42.6562C123.058 42.3177 123.153 42.0182 123.343 41.7578C123.535 41.4974 123.797 41.293 124.128 41.1445C124.461 40.9961 124.839 40.9219 125.261 40.9219C125.854 40.9219 126.321 41.0521 126.659 41.3125C127 41.5729 127.243 41.9167 127.386 42.3437ZM133.133 42.3437L132.305 42.5781C132.253 42.4401 132.176 42.306 132.074 42.1758C131.975 42.043 131.84 41.9336 131.668 41.8477C131.496 41.7617 131.276 41.7187 131.008 41.7187C130.641 41.7187 130.335 41.8034 130.09 41.9727C129.848 42.1393 129.727 42.3516 129.727 42.6094C129.727 42.8385 129.81 43.0195 129.977 43.1523C130.143 43.2852 130.404 43.3958 130.758 43.4844L131.648 43.7031C132.185 43.8333 132.585 44.0326 132.848 44.3008C133.111 44.5664 133.242 44.9089 133.242 45.3281C133.242 45.6719 133.143 45.9792 132.945 46.25C132.75 46.5208 132.477 46.7344 132.125 46.8906C131.773 47.0469 131.365 47.125 130.898 47.125C130.286 47.125 129.78 46.9922 129.379 46.7266C128.978 46.4609 128.724 46.0729 128.617 45.5625L129.492 45.3437C129.576 45.6667 129.733 45.9089 129.965 46.0703C130.199 46.2318 130.505 46.3125 130.883 46.3125C131.313 46.3125 131.654 46.2214 131.906 46.0391C132.161 45.8542 132.289 45.6328 132.289 45.375C132.289 45.1667 132.216 44.9922 132.07 44.8516C131.924 44.7083 131.701 44.6016 131.398 44.5312L130.398 44.2969C129.849 44.1667 129.445 43.9648 129.188 43.6914C128.932 43.4154 128.805 43.0703 128.805 42.6562C128.805 42.3177 128.9 42.0182 129.09 41.7578C129.283 41.4974 129.544 41.293 129.875 41.1445C130.208 40.9961 130.586 40.9219 131.008 40.9219C131.602 40.9219 132.068 41.0521 132.406 41.3125C132.747 41.5729 132.99 41.9167 133.133 42.3437Z" fill="#F56C0E"/>
<path d="M73.9688 8V-2.38419e-07H76.6719C77.2969 -2.38419e-07 77.8099 0.106771 78.2109 0.320312C78.612 0.53125 78.9089 0.821614 79.1016 1.19141C79.2943 1.5612 79.3906 1.98177 79.3906 2.45312C79.3906 2.92448 79.2943 3.34245 79.1016 3.70703C78.9089 4.07161 78.6133 4.35807 78.2148 4.56641C77.8164 4.77214 77.3073 4.875 76.6875 4.875H74.5V4H76.6563C77.0833 4 77.4271 3.9375 77.6875 3.8125C77.9505 3.6875 78.1406 3.51042 78.2578 3.28125C78.3776 3.04948 78.4375 2.77344 78.4375 2.45312C78.4375 2.13281 78.3776 1.85286 78.2578 1.61328C78.138 1.3737 77.9466 1.1888 77.6836 1.05859C77.4206 0.925781 77.0729 0.859375 76.6406 0.859375H74.9375V8H73.9688ZM77.7344 4.40625L79.7031 8H78.5781L76.6406 4.40625H77.7344ZM83.3311 8.125C82.7529 8.125 82.2542 7.9974 81.835 7.74219C81.4183 7.48438 81.0967 7.125 80.8701 6.66406C80.6462 6.20052 80.5342 5.66146 80.5342 5.04688C80.5342 4.43229 80.6462 3.89062 80.8701 3.42187C81.0967 2.95052 81.4118 2.58333 81.8154 2.32031C82.2217 2.05469 82.6956 1.92188 83.2373 1.92188C83.5498 1.92188 83.8584 1.97396 84.1631 2.07812C84.4678 2.18229 84.7451 2.35156 84.9951 2.58594C85.2451 2.81771 85.4443 3.125 85.5928 3.50781C85.7412 3.89062 85.8154 4.36198 85.8154 4.92187V5.3125H81.1904V4.51562H84.8779C84.8779 4.17708 84.8102 3.875 84.6748 3.60937C84.542 3.34375 84.3519 3.13411 84.1045 2.98047C83.8597 2.82682 83.5706 2.75 83.2373 2.75C82.8701 2.75 82.5524 2.84115 82.2842 3.02344C82.0186 3.20312 81.8141 3.4375 81.6709 3.72656C81.5277 4.01562 81.4561 4.32552 81.4561 4.65625V5.1875C81.4561 5.64063 81.5342 6.02474 81.6904 6.33984C81.8493 6.65234 82.0693 6.89062 82.3506 7.05469C82.6318 7.21615 82.9587 7.29688 83.3311 7.29688C83.5732 7.29688 83.792 7.26302 83.9873 7.19531C84.1852 7.125 84.3558 7.02083 84.499 6.88281C84.6423 6.74219 84.7529 6.56771 84.8311 6.35937L85.7217 6.60938C85.6279 6.91146 85.4704 7.17708 85.249 7.40625C85.0277 7.63281 84.7542 7.8099 84.4287 7.9375C84.1032 8.0625 83.7373 8.125 83.3311 8.125ZM88.9834 8.14063C88.6032 8.14063 88.2581 8.06901 87.9482 7.92578C87.6383 7.77995 87.3923 7.57031 87.21 7.29688C87.0277 7.02083 86.9365 6.6875 86.9365 6.29687C86.9365 5.95312 87.0042 5.67448 87.1396 5.46094C87.2751 5.24479 87.4561 5.07552 87.6826 4.95312C87.9092 4.83073 88.1592 4.73958 88.4326 4.67969C88.7087 4.61719 88.986 4.56771 89.2646 4.53125C89.6292 4.48437 89.9248 4.44922 90.1514 4.42578C90.3805 4.39974 90.5472 4.35677 90.6514 4.29687C90.7581 4.23698 90.8115 4.13281 90.8115 3.98437V3.95312C90.8115 3.56771 90.7061 3.26823 90.4951 3.05469C90.2868 2.84115 89.9704 2.73437 89.5459 2.73437C89.1058 2.73437 88.7607 2.83073 88.5107 3.02344C88.2607 3.21615 88.085 3.42187 87.9834 3.64062L87.1084 3.32812C87.2646 2.96354 87.473 2.67969 87.7334 2.47656C87.9964 2.27083 88.2829 2.1276 88.5928 2.04687C88.9053 1.96354 89.2126 1.92188 89.5146 1.92188C89.7074 1.92188 89.9287 1.94531 90.1787 1.99219C90.4313 2.03646 90.6748 2.12891 90.9092 2.26953C91.1462 2.41016 91.3428 2.6224 91.499 2.90625C91.6553 3.1901 91.7334 3.57031 91.7334 4.04688V8H90.8115V7.1875H90.7646C90.7021 7.31771 90.598 7.45703 90.4521 7.60547C90.3063 7.75391 90.1123 7.88021 89.8701 7.98437C89.6279 8.08854 89.3324 8.14063 88.9834 8.14063ZM89.124 7.3125C89.4886 7.3125 89.7959 7.24089 90.0459 7.09766C90.2985 6.95443 90.4886 6.76953 90.6162 6.54297C90.7464 6.31641 90.8115 6.07812 90.8115 5.82812V4.98437C90.7725 5.03125 90.6865 5.07422 90.5537 5.11328C90.4235 5.14974 90.2725 5.18229 90.1006 5.21094C89.9313 5.23698 89.766 5.26042 89.6045 5.28125C89.4456 5.29948 89.3167 5.3151 89.2178 5.32812C88.9782 5.35937 88.7542 5.41016 88.5459 5.48047C88.3402 5.54818 88.1735 5.65104 88.0459 5.78906C87.9209 5.92448 87.8584 6.10937 87.8584 6.34375C87.8584 6.66406 87.9769 6.90625 88.2139 7.07031C88.4535 7.23177 88.7568 7.3125 89.124 7.3125ZM94.3379 -2.38419e-07V8H93.416V-2.38419e-07H94.3379ZM99.2451 8V-2.38419e-07H104.073V0.859375H100.214V3.5625H103.823V4.42187H100.214V7.14062H104.136V8H99.2451ZM109.944 3.34375L109.116 3.57812C109.064 3.4401 108.987 3.30599 108.886 3.17578C108.787 3.04297 108.651 2.93359 108.479 2.84766C108.308 2.76172 108.088 2.71875 107.819 2.71875C107.452 2.71875 107.146 2.80339 106.901 2.97266C106.659 3.13932 106.538 3.35156 106.538 3.60937C106.538 3.83854 106.621 4.01953 106.788 4.15234C106.955 4.28516 107.215 4.39583 107.569 4.48437L108.46 4.70313C108.996 4.83333 109.396 5.03255 109.659 5.30078C109.922 5.56641 110.054 5.90885 110.054 6.32812C110.054 6.67187 109.955 6.97917 109.757 7.25C109.562 7.52083 109.288 7.73438 108.937 7.89063C108.585 8.04688 108.176 8.125 107.71 8.125C107.098 8.125 106.591 7.99219 106.19 7.72656C105.789 7.46094 105.535 7.07292 105.429 6.5625L106.304 6.34375C106.387 6.66667 106.545 6.90885 106.776 7.07031C107.011 7.23177 107.317 7.3125 107.694 7.3125C108.124 7.3125 108.465 7.22135 108.718 7.03906C108.973 6.85417 109.101 6.63281 109.101 6.375C109.101 6.16667 109.028 5.99219 108.882 5.85156C108.736 5.70833 108.512 5.60156 108.21 5.53125L107.21 5.29687C106.66 5.16667 106.257 4.96484 105.999 4.69141C105.744 4.41536 105.616 4.07031 105.616 3.65625C105.616 3.31771 105.711 3.01823 105.901 2.75781C106.094 2.4974 106.356 2.29297 106.687 2.14453C107.02 1.99609 107.397 1.92188 107.819 1.92188C108.413 1.92188 108.879 2.05208 109.218 2.3125C109.559 2.57292 109.801 2.91667 109.944 3.34375ZM114.051 2V2.78125H110.941V2H114.051ZM111.848 0.5625H112.77V6.28125C112.77 6.54167 112.807 6.73698 112.883 6.86719C112.961 6.99479 113.06 7.08073 113.18 7.125C113.302 7.16667 113.431 7.1875 113.566 7.1875C113.668 7.1875 113.751 7.18229 113.816 7.17187C113.882 7.15885 113.934 7.14844 113.973 7.14062L114.16 7.96875C114.098 7.99219 114.01 8.01563 113.898 8.03906C113.786 8.0651 113.645 8.07813 113.473 8.07813C113.212 8.07813 112.957 8.02214 112.707 7.91016C112.46 7.79818 112.254 7.6276 112.09 7.39844C111.928 7.16927 111.848 6.88021 111.848 6.53125V0.5625ZM117.203 8.14063C116.823 8.14063 116.478 8.06901 116.168 7.92578C115.858 7.77995 115.612 7.57031 115.43 7.29688C115.247 7.02083 115.156 6.6875 115.156 6.29687C115.156 5.95312 115.224 5.67448 115.359 5.46094C115.495 5.24479 115.676 5.07552 115.902 4.95312C116.129 4.83073 116.379 4.73958 116.652 4.67969C116.928 4.61719 117.206 4.56771 117.484 4.53125C117.849 4.48437 118.145 4.44922 118.371 4.42578C118.6 4.39974 118.767 4.35677 118.871 4.29687C118.978 4.23698 119.031 4.13281 119.031 3.98437V3.95312C119.031 3.56771 118.926 3.26823 118.715 3.05469C118.507 2.84115 118.19 2.73437 117.766 2.73437C117.326 2.73437 116.98 2.83073 116.73 3.02344C116.48 3.21615 116.305 3.42187 116.203 3.64062L115.328 3.32812C115.484 2.96354 115.693 2.67969 115.953 2.47656C116.216 2.27083 116.503 2.1276 116.813 2.04687C117.125 1.96354 117.432 1.92188 117.734 1.92188C117.927 1.92188 118.148 1.94531 118.398 1.99219C118.651 2.03646 118.895 2.12891 119.129 2.26953C119.366 2.41016 119.563 2.6224 119.719 2.90625C119.875 3.1901 119.953 3.57031 119.953 4.04688V8H119.031V7.1875H118.984C118.922 7.31771 118.818 7.45703 118.672 7.60547C118.526 7.75391 118.332 7.88021 118.09 7.98437C117.848 8.08854 117.552 8.14063 117.203 8.14063ZM117.344 7.3125C117.708 7.3125 118.016 7.24089 118.266 7.09766C118.518 6.95443 118.708 6.76953 118.836 6.54297C118.966 6.31641 119.031 6.07812 119.031 5.82812V4.98437C118.992 5.03125 118.906 5.07422 118.773 5.11328C118.643 5.14974 118.492 5.18229 118.32 5.21094C118.151 5.23698 117.986 5.26042 117.824 5.28125C117.665 5.29948 117.536 5.3151 117.438 5.32812C117.198 5.35937 116.974 5.41016 116.766 5.48047C116.56 5.54818 116.393 5.65104 116.266 5.78906C116.141 5.92448 116.078 6.10937 116.078 6.34375C116.078 6.66406 116.197 6.90625 116.434 7.07031C116.673 7.23177 116.977 7.3125 117.344 7.3125ZM124.245 2V2.78125H121.136V2H124.245ZM122.042 0.5625H122.964V6.28125C122.964 6.54167 123.002 6.73698 123.077 6.86719C123.155 6.99479 123.254 7.08073 123.374 7.125C123.496 7.16667 123.625 7.1875 123.761 7.1875C123.862 7.1875 123.946 7.18229 124.011 7.17187C124.076 7.15885 124.128 7.14844 124.167 7.14062L124.354 7.96875C124.292 7.99219 124.205 8.01563 124.093 8.03906C123.981 8.0651 123.839 8.07813 123.667 8.07813C123.407 8.07813 123.151 8.02214 122.901 7.91016C122.654 7.79818 122.448 7.6276 122.284 7.39844C122.123 7.16927 122.042 6.88021 122.042 6.53125V0.5625ZM128.083 8.125C127.505 8.125 127.006 7.9974 126.587 7.74219C126.17 7.48438 125.849 7.125 125.622 6.66406C125.398 6.20052 125.286 5.66146 125.286 5.04688C125.286 4.43229 125.398 3.89062 125.622 3.42187C125.849 2.95052 126.164 2.58333 126.567 2.32031C126.974 2.05469 127.448 1.92188 127.989 1.92188C128.302 1.92188 128.61 1.97396 128.915 2.07812C129.22 2.18229 129.497 2.35156 129.747 2.58594C129.997 2.81771 130.196 3.125 130.345 3.50781C130.493 3.89062 130.567 4.36198 130.567 4.92187V5.3125H125.942V4.51562H129.63C129.63 4.17708 129.562 3.875 129.427 3.60937C129.294 3.34375 129.104 3.13411 128.856 2.98047C128.612 2.82682 128.323 2.75 127.989 2.75C127.622 2.75 127.304 2.84115 127.036 3.02344C126.771 3.20312 126.566 3.4375 126.423 3.72656C126.28 4.01562 126.208 4.32552 126.208 4.65625V5.1875C126.208 5.64063 126.286 6.02474 126.442 6.33984C126.601 6.65234 126.821 6.89062 127.103 7.05469C127.384 7.21615 127.711 7.29688 128.083 7.29688C128.325 7.29688 128.544 7.26302 128.739 7.19531C128.937 7.125 129.108 7.02083 129.251 6.88281C129.394 6.74219 129.505 6.56771 129.583 6.35937L130.474 6.60938C130.38 6.91146 130.222 7.17708 130.001 7.40625C129.78 7.63281 129.506 7.8099 129.181 7.9375C128.855 8.0625 128.489 8.125 128.083 8.125Z" fill="white"/>
<rect y="36" width="136" height="0.7" fill="url(#paint0_linear_0_1)"/>
<defs>
<linearGradient id="paint0_linear_0_1" x1="68" y1="36" x2="68" y2="36.7" gradientUnits="userSpaceOnUse">
<stop stop-color="#302727"/>
<stop offset="1" stop-color="#302727" stop-opacity="0"/>
</linearGradient>
</defs>
</svg>
