<svg width="136" height="53" viewBox="0 0 136 53" fill="none" xmlns="http://www.w3.org/2000/svg">
<path d="M13.5682 28.1818H16.4659L18.8949 31.3778L19.5341 32.2301L23.1562 37.0455H20.2585L17.8722 33.8494L17.2756 33.0398L13.5682 28.1818ZM24.0511 24.0909C24.0511 26.392 23.6357 28.3807 22.8047 30.0568C21.9737 31.733 20.8338 33.0256 19.3849 33.9347C17.9361 34.8438 16.2813 35.2983 14.4205 35.2983C12.5597 35.2983 10.9048 34.8438 9.45597 33.9347C8.0071 33.0256 6.86719 31.733 6.03622 30.0568C5.20526 28.3807 4.78977 26.392 4.78977 24.0909C4.78977 21.7898 5.20526 19.8011 6.03622 18.125C6.86719 16.4489 8.0071 15.1562 9.45597 14.2472C10.9048 13.3381 12.5597 12.8835 14.4205 12.8835C16.2813 12.8835 17.9361 13.3381 19.3849 14.2472C20.8338 15.1562 21.9737 16.4489 22.8047 18.125C23.6357 19.8011 24.0511 21.7898 24.0511 24.0909ZM21.4943 24.0909C21.4943 22.2017 21.1783 20.6072 20.5462 19.3075C19.9212 18.0078 19.0724 17.0241 18 16.3565C16.9347 15.6889 15.7415 15.3551 14.4205 15.3551C13.0994 15.3551 11.9027 15.6889 10.8303 16.3565C9.76491 17.0241 8.91619 18.0078 8.28409 19.3075C7.65909 20.6072 7.34659 22.2017 7.34659 24.0909C7.34659 25.9801 7.65909 27.5746 8.28409 28.8743C8.91619 30.174 9.76491 31.1577 10.8303 31.8253C11.9027 32.4929 13.0994 32.8267 14.4205 32.8267C15.7415 32.8267 16.9347 32.4929 18 31.8253C19.0724 31.1577 19.9212 30.174 20.5462 28.8743C21.1783 27.5746 21.4943 25.9801 21.4943 24.0909ZM32.4567 35L26.4908 13.1818H29.1754L33.7351 30.9517H33.9482L38.593 13.1818H41.576L46.2209 30.9517H46.4339L50.9936 13.1818H53.6783L47.7124 35H44.9851L40.1697 17.6136H39.9993L35.1839 35H32.4567ZM56.9702 35V13.1818H70.1378V15.5256H59.6122V22.8977H69.456V25.2415H59.6122V32.6562H70.3082V35H56.9702ZM74.8999 35V13.1818H82.272C83.9766 13.1818 85.3757 13.473 86.4695 14.0554C87.5632 14.6307 88.3729 15.4226 88.8984 16.4311C89.424 17.4396 89.6868 18.5866 89.6868 19.8722C89.6868 21.1577 89.424 22.2976 88.8984 23.2919C88.3729 24.2862 87.5668 25.0675 86.4801 25.6357C85.3935 26.1967 84.005 26.4773 82.3146 26.4773H76.3487V24.0909H82.2294C83.3942 24.0909 84.3317 23.9205 85.0419 23.5795C85.7592 23.2386 86.2777 22.7557 86.5973 22.1307C86.924 21.4986 87.0874 20.7457 87.0874 19.8722C87.0874 18.9986 86.924 18.2351 86.5973 17.5817C86.2706 16.9283 85.7486 16.424 85.0312 16.0689C84.3139 15.7067 83.3658 15.5256 82.1868 15.5256H77.5419V35H74.8999ZM85.1697 25.1989L90.5391 35H87.4709L82.1868 25.1989H85.1697ZM92.8961 15.5256V13.1818H109.26V15.5256H102.399V35H99.7569V15.5256H92.8961ZM111.462 13.1818H114.488L120.539 23.3665H120.795L126.846 13.1818H129.871L121.988 26.0085V35H119.346V26.0085L111.462 13.1818Z" fill="#F56C0E"/>
<path d="M3.96875 50V42H8.76563V42.8594H4.9375V45.5625H8.40625V46.4219H4.9375V50H3.96875ZM12.0654 50.1406C11.6852 50.1406 11.3402 50.069 11.0303 49.9258C10.7204 49.7799 10.4743 49.5703 10.292 49.2969C10.1097 49.0208 10.0186 48.6875 10.0186 48.2969C10.0186 47.9531 10.0863 47.6745 10.2217 47.4609C10.3571 47.2448 10.5381 47.0755 10.7646 46.9531C10.9912 46.8307 11.2412 46.7396 11.5146 46.6797C11.7907 46.6172 12.068 46.5677 12.3467 46.5313C12.7113 46.4844 13.0068 46.4492 13.2334 46.4258C13.4626 46.3997 13.6292 46.3568 13.7334 46.2969C13.8402 46.237 13.8936 46.1328 13.8936 45.9844V45.9531C13.8936 45.5677 13.7881 45.2682 13.5771 45.0547C13.3688 44.8411 13.0524 44.7344 12.6279 44.7344C12.1878 44.7344 11.8428 44.8307 11.5928 45.0234C11.3428 45.2161 11.167 45.4219 11.0654 45.6406L10.1904 45.3281C10.3467 44.9635 10.555 44.6797 10.8154 44.4766C11.0785 44.2708 11.3649 44.1276 11.6748 44.0469C11.9873 43.9635 12.2946 43.9219 12.5967 43.9219C12.7894 43.9219 13.0107 43.9453 13.2607 43.9922C13.5133 44.0365 13.7568 44.1289 13.9912 44.2695C14.2282 44.4102 14.4248 44.6224 14.5811 44.9062C14.7373 45.1901 14.8154 45.5703 14.8154 46.0469V50H13.8936V49.1875H13.8467C13.7842 49.3177 13.68 49.457 13.5342 49.6055C13.3883 49.7539 13.1943 49.8802 12.9521 49.9844C12.71 50.0885 12.4144 50.1406 12.0654 50.1406ZM12.2061 49.3125C12.5706 49.3125 12.8779 49.2409 13.1279 49.0977C13.3805 48.9544 13.5706 48.7695 13.6982 48.543C13.8285 48.3164 13.8936 48.0781 13.8936 47.8281V46.9844C13.8545 47.0312 13.7686 47.0742 13.6357 47.1133C13.5055 47.1497 13.3545 47.1823 13.1826 47.2109C13.0133 47.237 12.848 47.2604 12.6865 47.2812C12.5277 47.2995 12.3988 47.3151 12.2998 47.3281C12.0602 47.3594 11.8363 47.4102 11.6279 47.4805C11.4222 47.5482 11.2555 47.651 11.1279 47.7891C11.0029 47.9245 10.9404 48.1094 10.9404 48.3437C10.9404 48.6641 11.0589 48.9062 11.2959 49.0703C11.5355 49.2318 11.8389 49.3125 12.2061 49.3125ZM16.498 50V44H17.3887V44.9375H17.4668C17.5918 44.6172 17.7936 44.3685 18.0723 44.1914C18.3509 44.0117 18.6855 43.9219 19.0762 43.9219C19.472 43.9219 19.8014 44.0117 20.0645 44.1914C20.3301 44.3685 20.5371 44.6172 20.6855 44.9375H20.748C20.9017 44.6276 21.1322 44.3815 21.4395 44.1992C21.7467 44.0143 22.1152 43.9219 22.5449 43.9219C23.0814 43.9219 23.5202 44.0898 23.8613 44.4258C24.2025 44.7591 24.373 45.2786 24.373 45.9844V50H23.4512V45.9844C23.4512 45.5417 23.3301 45.2253 23.0879 45.0352C22.8457 44.8451 22.5605 44.75 22.2324 44.75C21.8105 44.75 21.4837 44.8776 21.252 45.1328C21.0202 45.3854 20.9043 45.7057 20.9043 46.0937V50H19.9668V45.8906C19.9668 45.5495 19.8561 45.2747 19.6348 45.0664C19.4134 44.8555 19.1283 44.75 18.7793 44.75C18.5397 44.75 18.3158 44.8138 18.1074 44.9414C17.9017 45.069 17.735 45.2461 17.6074 45.4727C17.4824 45.6966 17.4199 45.9557 17.4199 46.25V50H16.498ZM26.0586 50V44H26.9805V50H26.0586ZM26.5273 43C26.3477 43 26.1927 42.9388 26.0625 42.8164C25.9349 42.694 25.8711 42.5469 25.8711 42.375C25.8711 42.2031 25.9349 42.056 26.0625 41.9336C26.1927 41.8112 26.3477 41.75 26.5273 41.75C26.707 41.75 26.8607 41.8112 26.9883 41.9336C27.1185 42.056 27.1836 42.2031 27.1836 42.375C27.1836 42.5469 27.1185 42.694 26.9883 42.8164C26.8607 42.9388 26.707 43 26.5273 43ZM29.5908 42V50H28.6689V42H29.5908ZM31.873 52.25C31.7168 52.25 31.5775 52.237 31.4551 52.2109C31.3327 52.1875 31.248 52.1641 31.2012 52.1406L31.4355 51.3281C31.6595 51.3854 31.8574 51.4063 32.0293 51.3906C32.2012 51.375 32.3535 51.2982 32.4863 51.1602C32.6217 51.0247 32.7454 50.8047 32.8574 50.5L33.0293 50.0313L30.8105 44H31.8105L33.4668 48.7812H33.5293L35.1855 44H36.1855L33.6387 50.875C33.5241 51.1849 33.3822 51.4414 33.2129 51.6445C33.0436 51.8503 32.847 52.0026 32.623 52.1016C32.4017 52.2005 32.1517 52.25 31.873 52.25ZM37.6982 50.0625C37.5055 50.0625 37.3402 49.9935 37.2021 49.8555C37.0641 49.7174 36.9951 49.5521 36.9951 49.3594C36.9951 49.1667 37.0641 49.0013 37.2021 48.8633C37.3402 48.7253 37.5055 48.6562 37.6982 48.6562C37.891 48.6562 38.0563 48.7253 38.1943 48.8633C38.3324 49.0013 38.4014 49.1667 38.4014 49.3594C38.4014 49.487 38.3688 49.6042 38.3037 49.7109C38.2412 49.8177 38.1566 49.9036 38.0498 49.9687C37.9456 50.0313 37.8285 50.0625 37.6982 50.0625ZM43.2744 50V42H44.2432V45.5625H48.5088V42H49.4775V50H48.5088V46.4219H44.2432V50H43.2744ZM53.7295 50.125C53.1878 50.125 52.7126 49.9961 52.3037 49.7383C51.8975 49.4805 51.5798 49.1198 51.3506 48.6562C51.124 48.1927 51.0107 47.651 51.0107 47.0312C51.0107 46.4062 51.124 45.8607 51.3506 45.3945C51.5798 44.9284 51.8975 44.5664 52.3037 44.3086C52.7126 44.0508 53.1878 43.9219 53.7295 43.9219C54.2712 43.9219 54.7451 44.0508 55.1514 44.3086C55.5602 44.5664 55.8779 44.9284 56.1045 45.3945C56.3337 45.8607 56.4482 46.4062 56.4482 47.0312C56.4482 47.651 56.3337 48.1927 56.1045 48.6562C55.8779 49.1198 55.5602 49.4805 55.1514 49.7383C54.7451 49.9961 54.2712 50.125 53.7295 50.125ZM53.7295 49.2969C54.141 49.2969 54.4795 49.1914 54.7451 48.9805C55.0107 48.7695 55.2074 48.4922 55.335 48.1484C55.4626 47.8047 55.5264 47.4323 55.5264 47.0312C55.5264 46.6302 55.4626 46.2565 55.335 45.9102C55.2074 45.5638 55.0107 45.2839 54.7451 45.0703C54.4795 44.8568 54.141 44.75 53.7295 44.75C53.318 44.75 52.9795 44.8568 52.7139 45.0703C52.4482 45.2839 52.2516 45.5638 52.124 45.9102C51.9964 46.2565 51.9326 46.6302 51.9326 47.0312C51.9326 47.4323 51.9964 47.8047 52.124 48.1484C52.2516 48.4922 52.4482 48.7695 52.7139 48.9805C52.9795 49.1914 53.318 49.2969 53.7295 49.2969ZM57.8555 50V44H58.7461V44.9375H58.8242C58.9492 44.6172 59.151 44.3685 59.4297 44.1914C59.7083 44.0117 60.043 43.9219 60.4336 43.9219C60.8294 43.9219 61.1589 44.0117 61.4219 44.1914C61.6875 44.3685 61.8945 44.6172 62.043 44.9375H62.1055C62.2591 44.6276 62.4896 44.3815 62.7969 44.1992C63.1042 44.0143 63.4727 43.9219 63.9023 43.9219C64.4388 43.9219 64.8776 44.0898 65.2188 44.4258C65.5599 44.7591 65.7305 45.2786 65.7305 45.9844V50H64.8086V45.9844C64.8086 45.5417 64.6875 45.2253 64.4453 45.0352C64.2031 44.8451 63.918 44.75 63.5898 44.75C63.168 44.75 62.8411 44.8776 62.6094 45.1328C62.3776 45.3854 62.2617 45.7057 62.2617 46.0937V50H61.3242V45.8906C61.3242 45.5495 61.2135 45.2747 60.9922 45.0664C60.7708 44.8555 60.4857 44.75 60.1367 44.75C59.8971 44.75 59.6732 44.8138 59.4648 44.9414C59.2591 45.069 59.0924 45.2461 58.9648 45.4727C58.8398 45.6966 58.7773 45.9557 58.7773 46.25V50H57.8555ZM69.9316 50.125C69.3535 50.125 68.8548 49.9974 68.4355 49.7422C68.0189 49.4844 67.6973 49.125 67.4707 48.6641C67.2467 48.2005 67.1348 47.6615 67.1348 47.0469C67.1348 46.4323 67.2467 45.8906 67.4707 45.4219C67.6973 44.9505 68.0124 44.5833 68.416 44.3203C68.8223 44.0547 69.2962 43.9219 69.8379 43.9219C70.1504 43.9219 70.459 43.974 70.7637 44.0781C71.0684 44.1823 71.3457 44.3516 71.5957 44.5859C71.8457 44.8177 72.0449 45.125 72.1934 45.5078C72.3418 45.8906 72.416 46.362 72.416 46.9219V47.3125H67.791V46.5156H71.4785C71.4785 46.1771 71.4108 45.875 71.2754 45.6094C71.1426 45.3437 70.9525 45.1341 70.7051 44.9805C70.4603 44.8268 70.1712 44.75 69.8379 44.75C69.4707 44.75 69.153 44.8411 68.8848 45.0234C68.6191 45.2031 68.4147 45.4375 68.2715 45.7266C68.1283 46.0156 68.0566 46.3255 68.0566 46.6562V47.1875C68.0566 47.6406 68.1348 48.0247 68.291 48.3398C68.4499 48.6523 68.6699 48.8906 68.9512 49.0547C69.2324 49.2161 69.5592 49.2969 69.9316 49.2969C70.1738 49.2969 70.3926 49.263 70.5879 49.1953C70.7858 49.125 70.9564 49.0208 71.0996 48.8828C71.2428 48.7422 71.3535 48.5677 71.4316 48.3594L72.3223 48.6094C72.2285 48.9115 72.071 49.1771 71.8496 49.4062C71.6283 49.6328 71.3548 49.8099 71.0293 49.9375C70.7038 50.0625 70.3379 50.125 69.9316 50.125ZM74.4902 50.0625C74.2975 50.0625 74.1322 49.9935 73.9941 49.8555C73.8561 49.7174 73.7871 49.5521 73.7871 49.3594C73.7871 49.1667 73.8561 49.0013 73.9941 48.8633C74.1322 48.7253 74.2975 48.6562 74.4902 48.6562C74.6829 48.6562 74.8483 48.7253 74.9863 48.8633C75.1243 49.0013 75.1934 49.1667 75.1934 49.3594C75.1934 49.487 75.1608 49.6042 75.0957 49.7109C75.0332 49.8177 74.9486 49.9036 74.8418 49.9687C74.7376 50.0313 74.6204 50.0625 74.4902 50.0625ZM80.0664 50V42H81.0352V45.5625H85.3008V42H86.2695V50H85.3008V46.4219H81.0352V50H80.0664ZM89.8496 50.1406C89.4694 50.1406 89.1243 50.069 88.8145 49.9258C88.5046 49.7799 88.2585 49.5703 88.0762 49.2969C87.8939 49.0208 87.8027 48.6875 87.8027 48.2969C87.8027 47.9531 87.8704 47.6745 88.0059 47.4609C88.1413 47.2448 88.3223 47.0755 88.5488 46.9531C88.7754 46.8307 89.0254 46.7396 89.2988 46.6797C89.5749 46.6172 89.8522 46.5677 90.1309 46.5313C90.4954 46.4844 90.791 46.4492 91.0176 46.4258C91.2467 46.3997 91.4134 46.3568 91.5176 46.2969C91.6243 46.237 91.6777 46.1328 91.6777 45.9844V45.9531C91.6777 45.5677 91.5723 45.2682 91.3613 45.0547C91.153 44.8411 90.8366 44.7344 90.4121 44.7344C89.972 44.7344 89.627 44.8307 89.377 45.0234C89.127 45.2161 88.9512 45.4219 88.8496 45.6406L87.9746 45.3281C88.1309 44.9635 88.3392 44.6797 88.5996 44.4766C88.8626 44.2708 89.1491 44.1276 89.459 44.0469C89.7715 43.9635 90.0788 43.9219 90.3809 43.9219C90.5736 43.9219 90.7949 43.9453 91.0449 43.9922C91.2975 44.0365 91.541 44.1289 91.7754 44.2695C92.0124 44.4102 92.209 44.6224 92.3652 44.9062C92.5215 45.1901 92.5996 45.5703 92.5996 46.0469V50H91.6777V49.1875H91.6309C91.5684 49.3177 91.4642 49.457 91.3184 49.6055C91.1725 49.7539 90.9785 49.8802 90.7363 49.9844C90.4941 50.0885 90.1986 50.1406 89.8496 50.1406ZM89.9902 49.3125C90.3548 49.3125 90.6621 49.2409 90.9121 49.0977C91.1647 48.9544 91.3548 48.7695 91.4824 48.543C91.6126 48.3164 91.6777 48.0781 91.6777 47.8281V46.9844C91.6387 47.0312 91.5527 47.0742 91.4199 47.1133C91.2897 47.1497 91.1387 47.1823 90.9668 47.2109C90.7975 47.237 90.6322 47.2604 90.4707 47.2812C90.3118 47.2995 90.1829 47.3151 90.084 47.3281C89.8444 47.3594 89.6204 47.4102 89.4121 47.4805C89.2064 47.5482 89.0397 47.651 88.9121 47.7891C88.7871 47.9245 88.7246 48.1094 88.7246 48.3437C88.7246 48.6641 88.8431 48.9062 89.0801 49.0703C89.3197 49.2318 89.623 49.3125 89.9902 49.3125ZM94.2822 52.25V44H95.1729V44.9531H95.2822C95.3499 44.849 95.4437 44.7161 95.5635 44.5547C95.6859 44.3906 95.8604 44.2448 96.0869 44.1172C96.3161 43.987 96.626 43.9219 97.0166 43.9219C97.5218 43.9219 97.9671 44.0482 98.3525 44.3008C98.738 44.5534 99.0387 44.9115 99.2549 45.375C99.471 45.8385 99.5791 46.3854 99.5791 47.0156C99.5791 47.651 99.471 48.2018 99.2549 48.668C99.0387 49.1315 98.7393 49.4909 98.3564 49.7461C97.9736 49.9987 97.5322 50.125 97.0322 50.125C96.6468 50.125 96.3382 50.0612 96.1064 49.9336C95.8747 49.8034 95.6963 49.6562 95.5713 49.4922C95.4463 49.3255 95.3499 49.1875 95.2822 49.0781H95.2041V52.25H94.2822ZM95.1885 47C95.1885 47.4531 95.2549 47.8529 95.3877 48.1992C95.5205 48.543 95.7145 48.8125 95.9697 49.0078C96.2249 49.2005 96.5374 49.2969 96.9072 49.2969C97.2926 49.2969 97.6143 49.1953 97.8721 48.9922C98.1325 48.7865 98.3278 48.5104 98.458 48.1641C98.5908 47.8151 98.6572 47.4271 98.6572 47C98.6572 46.5781 98.5921 46.1979 98.4619 45.8594C98.3343 45.5182 98.1403 45.2487 97.8799 45.0508C97.6221 44.8503 97.2979 44.75 96.9072 44.75C96.5322 44.75 96.2171 44.8451 95.9619 45.0352C95.7067 45.2227 95.514 45.4857 95.3838 45.8242C95.2536 46.1602 95.1885 46.5521 95.1885 47ZM100.985 52.25V44H101.876V44.9531H101.985C102.053 44.849 102.147 44.7161 102.267 44.5547C102.389 44.3906 102.563 44.2448 102.79 44.1172C103.019 43.987 103.329 43.9219 103.72 43.9219C104.225 43.9219 104.67 44.0482 105.056 44.3008C105.441 44.5534 105.742 44.9115 105.958 45.375C106.174 45.8385 106.282 46.3854 106.282 47.0156C106.282 47.651 106.174 48.2018 105.958 48.668C105.742 49.1315 105.442 49.4909 105.06 49.7461C104.677 49.9987 104.235 50.125 103.735 50.125C103.35 50.125 103.041 50.0612 102.81 49.9336C102.578 49.8034 102.399 49.6562 102.274 49.4922C102.149 49.3255 102.053 49.1875 101.985 49.0781H101.907V52.25H100.985ZM101.892 47C101.892 47.4531 101.958 47.8529 102.091 48.1992C102.224 48.543 102.418 48.8125 102.673 49.0078C102.928 49.2005 103.241 49.2969 103.61 49.2969C103.996 49.2969 104.317 49.1953 104.575 48.9922C104.836 48.7865 105.031 48.5104 105.161 48.1641C105.294 47.8151 105.36 47.4271 105.36 47C105.36 46.5781 105.295 46.1979 105.165 45.8594C105.037 45.5182 104.843 45.2487 104.583 45.0508C104.325 44.8503 104.001 44.75 103.61 44.75C103.235 44.75 102.92 44.8451 102.665 45.0352C102.41 45.2227 102.217 45.4857 102.087 45.8242C101.957 46.1602 101.892 46.5521 101.892 47ZM107.688 50V44H108.61V50H107.688ZM108.157 43C107.978 43 107.823 42.9388 107.692 42.8164C107.565 42.694 107.501 42.5469 107.501 42.375C107.501 42.2031 107.565 42.056 107.692 41.9336C107.823 41.8112 107.978 41.75 108.157 41.75C108.337 41.75 108.491 41.8112 108.618 41.9336C108.748 42.056 108.813 42.2031 108.813 42.375C108.813 42.5469 108.748 42.694 108.618 42.8164C108.491 42.9388 108.337 43 108.157 43ZM111.221 46.3906V50H110.299V44H111.189V44.9375H111.268C111.408 44.6328 111.622 44.388 111.908 44.2031C112.195 44.0156 112.564 43.9219 113.018 43.9219C113.424 43.9219 113.779 44.0052 114.084 44.1719C114.389 44.3359 114.626 44.5859 114.795 44.9219C114.964 45.2552 115.049 45.6771 115.049 46.1875V50H114.127V46.25C114.127 45.7786 114.005 45.4115 113.76 45.1484C113.515 44.8828 113.179 44.75 112.752 44.75C112.458 44.75 112.195 44.8138 111.963 44.9414C111.734 45.069 111.553 45.2552 111.42 45.5C111.287 45.7448 111.221 46.0417 111.221 46.3906ZM119.249 50.125C118.671 50.125 118.172 49.9974 117.753 49.7422C117.336 49.4844 117.015 49.125 116.788 48.6641C116.564 48.2005 116.452 47.6615 116.452 47.0469C116.452 46.4323 116.564 45.8906 116.788 45.4219C117.015 44.9505 117.33 44.5833 117.733 44.3203C118.14 44.0547 118.614 43.9219 119.155 43.9219C119.468 43.9219 119.776 43.974 120.081 44.0781C120.386 44.1823 120.663 44.3516 120.913 44.5859C121.163 44.8177 121.362 45.125 121.511 45.5078C121.659 45.8906 121.733 46.362 121.733 46.9219V47.3125H117.108V46.5156H120.796C120.796 46.1771 120.728 45.875 120.593 45.6094C120.46 45.3437 120.27 45.1341 120.022 44.9805C119.778 44.8268 119.489 44.75 119.155 44.75C118.788 44.75 118.47 44.8411 118.202 45.0234C117.937 45.2031 117.732 45.4375 117.589 45.7266C117.446 46.0156 117.374 46.3255 117.374 46.6562V47.1875C117.374 47.6406 117.452 48.0247 117.608 48.3398C117.767 48.6523 117.987 48.8906 118.269 49.0547C118.55 49.2161 118.877 49.2969 119.249 49.2969C119.491 49.2969 119.71 49.263 119.905 49.1953C120.103 49.125 120.274 49.0208 120.417 48.8828C120.56 48.7422 120.671 48.5677 120.749 48.3594L121.64 48.6094C121.546 48.9115 121.388 49.1771 121.167 49.4062C120.946 49.6328 120.672 49.8099 120.347 49.9375C120.021 50.0625 119.655 50.125 119.249 50.125ZM127.386 45.3437L126.558 45.5781C126.506 45.4401 126.429 45.306 126.327 45.1758C126.228 45.043 126.093 44.9336 125.921 44.8477C125.749 44.7617 125.529 44.7187 125.261 44.7187C124.894 44.7187 124.588 44.8034 124.343 44.9727C124.101 45.1393 123.979 45.3516 123.979 45.6094C123.979 45.8385 124.063 46.0195 124.229 46.1523C124.396 46.2852 124.657 46.3958 125.011 46.4844L125.901 46.7031C126.438 46.8333 126.838 47.0326 127.101 47.3008C127.364 47.5664 127.495 47.9089 127.495 48.3281C127.495 48.6719 127.396 48.9792 127.198 49.25C127.003 49.5208 126.729 49.7344 126.378 49.8906C126.026 50.0469 125.618 50.125 125.151 50.125C124.539 50.125 124.033 49.9922 123.632 49.7266C123.231 49.4609 122.977 49.0729 122.87 48.5625L123.745 48.3437C123.828 48.6667 123.986 48.9089 124.218 49.0703C124.452 49.2318 124.758 49.3125 125.136 49.3125C125.565 49.3125 125.907 49.2214 126.159 49.0391C126.414 48.8542 126.542 48.6328 126.542 48.375C126.542 48.1667 126.469 47.9922 126.323 47.8516C126.177 47.7083 125.953 47.6016 125.651 47.5312L124.651 47.2969C124.102 47.1667 123.698 46.9648 123.44 46.6914C123.185 46.4154 123.058 46.0703 123.058 45.6562C123.058 45.3177 123.153 45.0182 123.343 44.7578C123.535 44.4974 123.797 44.293 124.128 44.1445C124.461 43.9961 124.839 43.9219 125.261 43.9219C125.854 43.9219 126.321 44.0521 126.659 44.3125C127 44.5729 127.243 44.9167 127.386 45.3437ZM133.133 45.3437L132.305 45.5781C132.253 45.4401 132.176 45.306 132.074 45.1758C131.975 45.043 131.84 44.9336 131.668 44.8477C131.496 44.7617 131.276 44.7187 131.008 44.7187C130.641 44.7187 130.335 44.8034 130.09 44.9727C129.848 45.1393 129.727 45.3516 129.727 45.6094C129.727 45.8385 129.81 46.0195 129.977 46.1523C130.143 46.2852 130.404 46.3958 130.758 46.4844L131.648 46.7031C132.185 46.8333 132.585 47.0326 132.848 47.3008C133.111 47.5664 133.242 47.9089 133.242 48.3281C133.242 48.6719 133.143 48.9792 132.945 49.25C132.75 49.5208 132.477 49.7344 132.125 49.8906C131.773 50.0469 131.365 50.125 130.898 50.125C130.286 50.125 129.78 49.9922 129.379 49.7266C128.978 49.4609 128.724 49.0729 128.617 48.5625L129.492 48.3437C129.576 48.6667 129.733 48.9089 129.965 49.0703C130.199 49.2318 130.505 49.3125 130.883 49.3125C131.313 49.3125 131.654 49.2214 131.906 49.0391C132.161 48.8542 132.289 48.6328 132.289 48.375C132.289 48.1667 132.216 47.9922 132.07 47.8516C131.924 47.7083 131.701 47.6016 131.398 47.5312L130.398 47.2969C129.849 47.1667 129.445 46.9648 129.188 46.6914C128.932 46.4154 128.805 46.0703 128.805 45.6562C128.805 45.3177 128.9 45.0182 129.09 44.7578C129.283 44.4974 129.544 44.293 129.875 44.1445C130.208 43.9961 130.586 43.9219 131.008 43.9219C131.602 43.9219 132.068 44.0521 132.406 44.3125C132.747 44.5729 132.99 44.9167 133.133 45.3437Z" fill="#F56C0E"/>
<path d="M73.9688 11V3H76.6719C77.2969 3 77.8099 3.10677 78.2109 3.32031C78.612 3.53125 78.9089 3.82161 79.1016 4.19141C79.2943 4.5612 79.3906 4.98177 79.3906 5.45312C79.3906 5.92448 79.2943 6.34245 79.1016 6.70703C78.9089 7.07161 78.6133 7.35807 78.2148 7.56641C77.8164 7.77214 77.3073 7.875 76.6875 7.875H74.5V7H76.6563C77.0833 7 77.4271 6.9375 77.6875 6.8125C77.9505 6.6875 78.1406 6.51042 78.2578 6.28125C78.3776 6.04948 78.4375 5.77344 78.4375 5.45312C78.4375 5.13281 78.3776 4.85286 78.2578 4.61328C78.138 4.3737 77.9466 4.1888 77.6836 4.05859C77.4206 3.92578 77.0729 3.85937 76.6406 3.85937H74.9375V11H73.9688ZM77.7344 7.40625L79.7031 11H78.5781L76.6406 7.40625H77.7344ZM83.3311 11.125C82.7529 11.125 82.2542 10.9974 81.835 10.7422C81.4183 10.4844 81.0967 10.125 80.8701 9.66406C80.6462 9.20052 80.5342 8.66146 80.5342 8.04688C80.5342 7.43229 80.6462 6.89062 80.8701 6.42187C81.0967 5.95052 81.4118 5.58333 81.8154 5.32031C82.2217 5.05469 82.6956 4.92188 83.2373 4.92188C83.5498 4.92188 83.8584 4.97396 84.1631 5.07812C84.4678 5.18229 84.7451 5.35156 84.9951 5.58594C85.2451 5.81771 85.4443 6.125 85.5928 6.50781C85.7412 6.89062 85.8154 7.36198 85.8154 7.92187V8.3125H81.1904V7.51562H84.8779C84.8779 7.17708 84.8102 6.875 84.6748 6.60937C84.542 6.34375 84.3519 6.13411 84.1045 5.98047C83.8597 5.82682 83.5706 5.75 83.2373 5.75C82.8701 5.75 82.5524 5.84115 82.2842 6.02344C82.0186 6.20312 81.8141 6.4375 81.6709 6.72656C81.5277 7.01562 81.4561 7.32552 81.4561 7.65625V8.1875C81.4561 8.64063 81.5342 9.02474 81.6904 9.33984C81.8493 9.65234 82.0693 9.89062 82.3506 10.0547C82.6318 10.2161 82.9587 10.2969 83.3311 10.2969C83.5732 10.2969 83.792 10.263 83.9873 10.1953C84.1852 10.125 84.3558 10.0208 84.499 9.88281C84.6423 9.74219 84.7529 9.56771 84.8311 9.35937L85.7217 9.60938C85.6279 9.91146 85.4704 10.1771 85.249 10.4062C85.0277 10.6328 84.7542 10.8099 84.4287 10.9375C84.1032 11.0625 83.7373 11.125 83.3311 11.125ZM88.9834 11.1406C88.6032 11.1406 88.2581 11.069 87.9482 10.9258C87.6383 10.7799 87.3923 10.5703 87.21 10.2969C87.0277 10.0208 86.9365 9.6875 86.9365 9.29687C86.9365 8.95312 87.0042 8.67448 87.1396 8.46094C87.2751 8.24479 87.4561 8.07552 87.6826 7.95312C87.9092 7.83073 88.1592 7.73958 88.4326 7.67969C88.7087 7.61719 88.986 7.56771 89.2646 7.53125C89.6292 7.48437 89.9248 7.44922 90.1514 7.42578C90.3805 7.39974 90.5472 7.35677 90.6514 7.29687C90.7581 7.23698 90.8115 7.13281 90.8115 6.98437V6.95312C90.8115 6.56771 90.7061 6.26823 90.4951 6.05469C90.2868 5.84115 89.9704 5.73437 89.5459 5.73437C89.1058 5.73437 88.7607 5.83073 88.5107 6.02344C88.2607 6.21615 88.085 6.42187 87.9834 6.64062L87.1084 6.32812C87.2646 5.96354 87.473 5.67969 87.7334 5.47656C87.9964 5.27083 88.2829 5.1276 88.5928 5.04687C88.9053 4.96354 89.2126 4.92188 89.5146 4.92188C89.7074 4.92188 89.9287 4.94531 90.1787 4.99219C90.4313 5.03646 90.6748 5.12891 90.9092 5.26953C91.1462 5.41016 91.3428 5.6224 91.499 5.90625C91.6553 6.1901 91.7334 6.57031 91.7334 7.04688V11H90.8115V10.1875H90.7646C90.7021 10.3177 90.598 10.457 90.4521 10.6055C90.3063 10.7539 90.1123 10.8802 89.8701 10.9844C89.6279 11.0885 89.3324 11.1406 88.9834 11.1406ZM89.124 10.3125C89.4886 10.3125 89.7959 10.2409 90.0459 10.0977C90.2985 9.95443 90.4886 9.76953 90.6162 9.54297C90.7464 9.31641 90.8115 9.07812 90.8115 8.82812V7.98437C90.7725 8.03125 90.6865 8.07422 90.5537 8.11328C90.4235 8.14974 90.2725 8.18229 90.1006 8.21094C89.9313 8.23698 89.766 8.26042 89.6045 8.28125C89.4456 8.29948 89.3167 8.3151 89.2178 8.32812C88.9782 8.35937 88.7542 8.41016 88.5459 8.48047C88.3402 8.54818 88.1735 8.65104 88.0459 8.78906C87.9209 8.92448 87.8584 9.10937 87.8584 9.34375C87.8584 9.66406 87.9769 9.90625 88.2139 10.0703C88.4535 10.2318 88.7568 10.3125 89.124 10.3125ZM94.3379 3V11H93.416V3H94.3379ZM99.2451 11V3H104.073V3.85937H100.214V6.5625H103.823V7.42187H100.214V10.1406H104.136V11H99.2451ZM109.944 6.34375L109.116 6.57812C109.064 6.4401 108.987 6.30599 108.886 6.17578C108.787 6.04297 108.651 5.93359 108.479 5.84766C108.308 5.76172 108.088 5.71875 107.819 5.71875C107.452 5.71875 107.146 5.80339 106.901 5.97266C106.659 6.13932 106.538 6.35156 106.538 6.60937C106.538 6.83854 106.621 7.01953 106.788 7.15234C106.955 7.28516 107.215 7.39583 107.569 7.48437L108.46 7.70313C108.996 7.83333 109.396 8.03255 109.659 8.30078C109.922 8.56641 110.054 8.90885 110.054 9.32812C110.054 9.67187 109.955 9.97917 109.757 10.25C109.562 10.5208 109.288 10.7344 108.937 10.8906C108.585 11.0469 108.176 11.125 107.71 11.125C107.098 11.125 106.591 10.9922 106.19 10.7266C105.789 10.4609 105.535 10.0729 105.429 9.5625L106.304 9.34375C106.387 9.66667 106.545 9.90885 106.776 10.0703C107.011 10.2318 107.317 10.3125 107.694 10.3125C108.124 10.3125 108.465 10.2214 108.718 10.0391C108.973 9.85417 109.101 9.63281 109.101 9.375C109.101 9.16667 109.028 8.99219 108.882 8.85156C108.736 8.70833 108.512 8.60156 108.21 8.53125L107.21 8.29687C106.66 8.16667 106.257 7.96484 105.999 7.69141C105.744 7.41536 105.616 7.07031 105.616 6.65625C105.616 6.31771 105.711 6.01823 105.901 5.75781C106.094 5.4974 106.356 5.29297 106.687 5.14453C107.02 4.99609 107.397 4.92188 107.819 4.92188C108.413 4.92188 108.879 5.05208 109.218 5.3125C109.559 5.57292 109.801 5.91667 109.944 6.34375ZM114.051 5V5.78125H110.941V5H114.051ZM111.848 3.5625H112.77V9.28125C112.77 9.54167 112.807 9.73698 112.883 9.86719C112.961 9.99479 113.06 10.0807 113.18 10.125C113.302 10.1667 113.431 10.1875 113.566 10.1875C113.668 10.1875 113.751 10.1823 113.816 10.1719C113.882 10.1589 113.934 10.1484 113.973 10.1406L114.16 10.9687C114.098 10.9922 114.01 11.0156 113.898 11.0391C113.786 11.0651 113.645 11.0781 113.473 11.0781C113.212 11.0781 112.957 11.0221 112.707 10.9102C112.46 10.7982 112.254 10.6276 112.09 10.3984C111.928 10.1693 111.848 9.88021 111.848 9.53125V3.5625ZM117.203 11.1406C116.823 11.1406 116.478 11.069 116.168 10.9258C115.858 10.7799 115.612 10.5703 115.43 10.2969C115.247 10.0208 115.156 9.6875 115.156 9.29687C115.156 8.95312 115.224 8.67448 115.359 8.46094C115.495 8.24479 115.676 8.07552 115.902 7.95312C116.129 7.83073 116.379 7.73958 116.652 7.67969C116.928 7.61719 117.206 7.56771 117.484 7.53125C117.849 7.48437 118.145 7.44922 118.371 7.42578C118.6 7.39974 118.767 7.35677 118.871 7.29687C118.978 7.23698 119.031 7.13281 119.031 6.98437V6.95312C119.031 6.56771 118.926 6.26823 118.715 6.05469C118.507 5.84115 118.19 5.73437 117.766 5.73437C117.326 5.73437 116.98 5.83073 116.73 6.02344C116.48 6.21615 116.305 6.42187 116.203 6.64062L115.328 6.32812C115.484 5.96354 115.693 5.67969 115.953 5.47656C116.216 5.27083 116.503 5.1276 116.813 5.04687C117.125 4.96354 117.432 4.92188 117.734 4.92188C117.927 4.92188 118.148 4.94531 118.398 4.99219C118.651 5.03646 118.895 5.12891 119.129 5.26953C119.366 5.41016 119.563 5.6224 119.719 5.90625C119.875 6.1901 119.953 6.57031 119.953 7.04688V11H119.031V10.1875H118.984C118.922 10.3177 118.818 10.457 118.672 10.6055C118.526 10.7539 118.332 10.8802 118.09 10.9844C117.848 11.0885 117.552 11.1406 117.203 11.1406ZM117.344 10.3125C117.708 10.3125 118.016 10.2409 118.266 10.0977C118.518 9.95443 118.708 9.76953 118.836 9.54297C118.966 9.31641 119.031 9.07812 119.031 8.82812V7.98437C118.992 8.03125 118.906 8.07422 118.773 8.11328C118.643 8.14974 118.492 8.18229 118.32 8.21094C118.151 8.23698 117.986 8.26042 117.824 8.28125C117.665 8.29948 117.536 8.3151 117.438 8.32812C117.198 8.35937 116.974 8.41016 116.766 8.48047C116.56 8.54818 116.393 8.65104 116.266 8.78906C116.141 8.92448 116.078 9.10937 116.078 9.34375C116.078 9.66406 116.197 9.90625 116.434 10.0703C116.673 10.2318 116.977 10.3125 117.344 10.3125ZM124.245 5V5.78125H121.136V5H124.245ZM122.042 3.5625H122.964V9.28125C122.964 9.54167 123.002 9.73698 123.077 9.86719C123.155 9.99479 123.254 10.0807 123.374 10.125C123.496 10.1667 123.625 10.1875 123.761 10.1875C123.862 10.1875 123.946 10.1823 124.011 10.1719C124.076 10.1589 124.128 10.1484 124.167 10.1406L124.354 10.9687C124.292 10.9922 124.205 11.0156 124.093 11.0391C123.981 11.0651 123.839 11.0781 123.667 11.0781C123.407 11.0781 123.151 11.0221 122.901 10.9102C122.654 10.7982 122.448 10.6276 122.284 10.3984C122.123 10.1693 122.042 9.88021 122.042 9.53125V3.5625ZM128.083 11.125C127.505 11.125 127.006 10.9974 126.587 10.7422C126.17 10.4844 125.849 10.125 125.622 9.66406C125.398 9.20052 125.286 8.66146 125.286 8.04688C125.286 7.43229 125.398 6.89062 125.622 6.42187C125.849 5.95052 126.164 5.58333 126.567 5.32031C126.974 5.05469 127.448 4.92188 127.989 4.92188C128.302 4.92188 128.61 4.97396 128.915 5.07812C129.22 5.18229 129.497 5.35156 129.747 5.58594C129.997 5.81771 130.196 6.125 130.345 6.50781C130.493 6.89062 130.567 7.36198 130.567 7.92187V8.3125H125.942V7.51562H129.63C129.63 7.17708 129.562 6.875 129.427 6.60937C129.294 6.34375 129.104 6.13411 128.856 5.98047C128.612 5.82682 128.323 5.75 127.989 5.75C127.622 5.75 127.304 5.84115 127.036 6.02344C126.771 6.20312 126.566 6.4375 126.423 6.72656C126.28 7.01562 126.208 7.32552 126.208 7.65625V8.1875C126.208 8.64063 126.286 9.02474 126.442 9.33984C126.601 9.65234 126.821 9.89062 127.103 10.0547C127.384 10.2161 127.711 10.2969 128.083 10.2969C128.325 10.2969 128.544 10.263 128.739 10.1953C128.937 10.125 129.108 10.0208 129.251 9.88281C129.394 9.74219 129.505 9.56771 129.583 9.35937L130.474 9.60938C130.38 9.91146 130.222 10.1771 130.001 10.4062C129.78 10.6328 129.506 10.8099 129.181 10.9375C128.855 11.0625 128.489 11.125 128.083 11.125Z" fill="url(#paint0_linear_6_82)"/>
<path d="M73.9688 11V3H76.6719C77.2969 3 77.8099 3.10677 78.2109 3.32031C78.612 3.53125 78.9089 3.82161 79.1016 4.19141C79.2943 4.5612 79.3906 4.98177 79.3906 5.45312C79.3906 5.92448 79.2943 6.34245 79.1016 6.70703C78.9089 7.07161 78.6133 7.35807 78.2148 7.56641C77.8164 7.77214 77.3073 7.875 76.6875 7.875H74.5V7H76.6563C77.0833 7 77.4271 6.9375 77.6875 6.8125C77.9505 6.6875 78.1406 6.51042 78.2578 6.28125C78.3776 6.04948 78.4375 5.77344 78.4375 5.45312C78.4375 5.13281 78.3776 4.85286 78.2578 4.61328C78.138 4.3737 77.9466 4.1888 77.6836 4.05859C77.4206 3.92578 77.0729 3.85937 76.6406 3.85937H74.9375V11H73.9688ZM77.7344 7.40625L79.7031 11H78.5781L76.6406 7.40625H77.7344ZM83.3311 11.125C82.7529 11.125 82.2542 10.9974 81.835 10.7422C81.4183 10.4844 81.0967 10.125 80.8701 9.66406C80.6462 9.20052 80.5342 8.66146 80.5342 8.04688C80.5342 7.43229 80.6462 6.89062 80.8701 6.42187C81.0967 5.95052 81.4118 5.58333 81.8154 5.32031C82.2217 5.05469 82.6956 4.92188 83.2373 4.92188C83.5498 4.92188 83.8584 4.97396 84.1631 5.07812C84.4678 5.18229 84.7451 5.35156 84.9951 5.58594C85.2451 5.81771 85.4443 6.125 85.5928 6.50781C85.7412 6.89062 85.8154 7.36198 85.8154 7.92187V8.3125H81.1904V7.51562H84.8779C84.8779 7.17708 84.8102 6.875 84.6748 6.60937C84.542 6.34375 84.3519 6.13411 84.1045 5.98047C83.8597 5.82682 83.5706 5.75 83.2373 5.75C82.8701 5.75 82.5524 5.84115 82.2842 6.02344C82.0186 6.20312 81.8141 6.4375 81.6709 6.72656C81.5277 7.01562 81.4561 7.32552 81.4561 7.65625V8.1875C81.4561 8.64063 81.5342 9.02474 81.6904 9.33984C81.8493 9.65234 82.0693 9.89062 82.3506 10.0547C82.6318 10.2161 82.9587 10.2969 83.3311 10.2969C83.5732 10.2969 83.792 10.263 83.9873 10.1953C84.1852 10.125 84.3558 10.0208 84.499 9.88281C84.6423 9.74219 84.7529 9.56771 84.8311 9.35937L85.7217 9.60938C85.6279 9.91146 85.4704 10.1771 85.249 10.4062C85.0277 10.6328 84.7542 10.8099 84.4287 10.9375C84.1032 11.0625 83.7373 11.125 83.3311 11.125ZM88.9834 11.1406C88.6032 11.1406 88.2581 11.069 87.9482 10.9258C87.6383 10.7799 87.3923 10.5703 87.21 10.2969C87.0277 10.0208 86.9365 9.6875 86.9365 9.29687C86.9365 8.95312 87.0042 8.67448 87.1396 8.46094C87.2751 8.24479 87.4561 8.07552 87.6826 7.95312C87.9092 7.83073 88.1592 7.73958 88.4326 7.67969C88.7087 7.61719 88.986 7.56771 89.2646 7.53125C89.6292 7.48437 89.9248 7.44922 90.1514 7.42578C90.3805 7.39974 90.5472 7.35677 90.6514 7.29687C90.7581 7.23698 90.8115 7.13281 90.8115 6.98437V6.95312C90.8115 6.56771 90.7061 6.26823 90.4951 6.05469C90.2868 5.84115 89.9704 5.73437 89.5459 5.73437C89.1058 5.73437 88.7607 5.83073 88.5107 6.02344C88.2607 6.21615 88.085 6.42187 87.9834 6.64062L87.1084 6.32812C87.2646 5.96354 87.473 5.67969 87.7334 5.47656C87.9964 5.27083 88.2829 5.1276 88.5928 5.04687C88.9053 4.96354 89.2126 4.92188 89.5146 4.92188C89.7074 4.92188 89.9287 4.94531 90.1787 4.99219C90.4313 5.03646 90.6748 5.12891 90.9092 5.26953C91.1462 5.41016 91.3428 5.6224 91.499 5.90625C91.6553 6.1901 91.7334 6.57031 91.7334 7.04688V11H90.8115V10.1875H90.7646C90.7021 10.3177 90.598 10.457 90.4521 10.6055C90.3063 10.7539 90.1123 10.8802 89.8701 10.9844C89.6279 11.0885 89.3324 11.1406 88.9834 11.1406ZM89.124 10.3125C89.4886 10.3125 89.7959 10.2409 90.0459 10.0977C90.2985 9.95443 90.4886 9.76953 90.6162 9.54297C90.7464 9.31641 90.8115 9.07812 90.8115 8.82812V7.98437C90.7725 8.03125 90.6865 8.07422 90.5537 8.11328C90.4235 8.14974 90.2725 8.18229 90.1006 8.21094C89.9313 8.23698 89.766 8.26042 89.6045 8.28125C89.4456 8.29948 89.3167 8.3151 89.2178 8.32812C88.9782 8.35937 88.7542 8.41016 88.5459 8.48047C88.3402 8.54818 88.1735 8.65104 88.0459 8.78906C87.9209 8.92448 87.8584 9.10937 87.8584 9.34375C87.8584 9.66406 87.9769 9.90625 88.2139 10.0703C88.4535 10.2318 88.7568 10.3125 89.124 10.3125ZM94.3379 3V11H93.416V3H94.3379ZM99.2451 11V3H104.073V3.85937H100.214V6.5625H103.823V7.42187H100.214V10.1406H104.136V11H99.2451ZM109.944 6.34375L109.116 6.57812C109.064 6.4401 108.987 6.30599 108.886 6.17578C108.787 6.04297 108.651 5.93359 108.479 5.84766C108.308 5.76172 108.088 5.71875 107.819 5.71875C107.452 5.71875 107.146 5.80339 106.901 5.97266C106.659 6.13932 106.538 6.35156 106.538 6.60937C106.538 6.83854 106.621 7.01953 106.788 7.15234C106.955 7.28516 107.215 7.39583 107.569 7.48437L108.46 7.70313C108.996 7.83333 109.396 8.03255 109.659 8.30078C109.922 8.56641 110.054 8.90885 110.054 9.32812C110.054 9.67187 109.955 9.97917 109.757 10.25C109.562 10.5208 109.288 10.7344 108.937 10.8906C108.585 11.0469 108.176 11.125 107.71 11.125C107.098 11.125 106.591 10.9922 106.19 10.7266C105.789 10.4609 105.535 10.0729 105.429 9.5625L106.304 9.34375C106.387 9.66667 106.545 9.90885 106.776 10.0703C107.011 10.2318 107.317 10.3125 107.694 10.3125C108.124 10.3125 108.465 10.2214 108.718 10.0391C108.973 9.85417 109.101 9.63281 109.101 9.375C109.101 9.16667 109.028 8.99219 108.882 8.85156C108.736 8.70833 108.512 8.60156 108.21 8.53125L107.21 8.29687C106.66 8.16667 106.257 7.96484 105.999 7.69141C105.744 7.41536 105.616 7.07031 105.616 6.65625C105.616 6.31771 105.711 6.01823 105.901 5.75781C106.094 5.4974 106.356 5.29297 106.687 5.14453C107.02 4.99609 107.397 4.92188 107.819 4.92188C108.413 4.92188 108.879 5.05208 109.218 5.3125C109.559 5.57292 109.801 5.91667 109.944 6.34375ZM114.051 5V5.78125H110.941V5H114.051ZM111.848 3.5625H112.77V9.28125C112.77 9.54167 112.807 9.73698 112.883 9.86719C112.961 9.99479 113.06 10.0807 113.18 10.125C113.302 10.1667 113.431 10.1875 113.566 10.1875C113.668 10.1875 113.751 10.1823 113.816 10.1719C113.882 10.1589 113.934 10.1484 113.973 10.1406L114.16 10.9687C114.098 10.9922 114.01 11.0156 113.898 11.0391C113.786 11.0651 113.645 11.0781 113.473 11.0781C113.212 11.0781 112.957 11.0221 112.707 10.9102C112.46 10.7982 112.254 10.6276 112.09 10.3984C111.928 10.1693 111.848 9.88021 111.848 9.53125V3.5625ZM117.203 11.1406C116.823 11.1406 116.478 11.069 116.168 10.9258C115.858 10.7799 115.612 10.5703 115.43 10.2969C115.247 10.0208 115.156 9.6875 115.156 9.29687C115.156 8.95312 115.224 8.67448 115.359 8.46094C115.495 8.24479 115.676 8.07552 115.902 7.95312C116.129 7.83073 116.379 7.73958 116.652 7.67969C116.928 7.61719 117.206 7.56771 117.484 7.53125C117.849 7.48437 118.145 7.44922 118.371 7.42578C118.6 7.39974 118.767 7.35677 118.871 7.29687C118.978 7.23698 119.031 7.13281 119.031 6.98437V6.95312C119.031 6.56771 118.926 6.26823 118.715 6.05469C118.507 5.84115 118.19 5.73437 117.766 5.73437C117.326 5.73437 116.98 5.83073 116.73 6.02344C116.48 6.21615 116.305 6.42187 116.203 6.64062L115.328 6.32812C115.484 5.96354 115.693 5.67969 115.953 5.47656C116.216 5.27083 116.503 5.1276 116.813 5.04687C117.125 4.96354 117.432 4.92188 117.734 4.92188C117.927 4.92188 118.148 4.94531 118.398 4.99219C118.651 5.03646 118.895 5.12891 119.129 5.26953C119.366 5.41016 119.563 5.6224 119.719 5.90625C119.875 6.1901 119.953 6.57031 119.953 7.04688V11H119.031V10.1875H118.984C118.922 10.3177 118.818 10.457 118.672 10.6055C118.526 10.7539 118.332 10.8802 118.09 10.9844C117.848 11.0885 117.552 11.1406 117.203 11.1406ZM117.344 10.3125C117.708 10.3125 118.016 10.2409 118.266 10.0977C118.518 9.95443 118.708 9.76953 118.836 9.54297C118.966 9.31641 119.031 9.07812 119.031 8.82812V7.98437C118.992 8.03125 118.906 8.07422 118.773 8.11328C118.643 8.14974 118.492 8.18229 118.32 8.21094C118.151 8.23698 117.986 8.26042 117.824 8.28125C117.665 8.29948 117.536 8.3151 117.438 8.32812C117.198 8.35937 116.974 8.41016 116.766 8.48047C116.56 8.54818 116.393 8.65104 116.266 8.78906C116.141 8.92448 116.078 9.10937 116.078 9.34375C116.078 9.66406 116.197 9.90625 116.434 10.0703C116.673 10.2318 116.977 10.3125 117.344 10.3125ZM124.245 5V5.78125H121.136V5H124.245ZM122.042 3.5625H122.964V9.28125C122.964 9.54167 123.002 9.73698 123.077 9.86719C123.155 9.99479 123.254 10.0807 123.374 10.125C123.496 10.1667 123.625 10.1875 123.761 10.1875C123.862 10.1875 123.946 10.1823 124.011 10.1719C124.076 10.1589 124.128 10.1484 124.167 10.1406L124.354 10.9687C124.292 10.9922 124.205 11.0156 124.093 11.0391C123.981 11.0651 123.839 11.0781 123.667 11.0781C123.407 11.0781 123.151 11.0221 122.901 10.9102C122.654 10.7982 122.448 10.6276 122.284 10.3984C122.123 10.1693 122.042 9.88021 122.042 9.53125V3.5625ZM128.083 11.125C127.505 11.125 127.006 10.9974 126.587 10.7422C126.17 10.4844 125.849 10.125 125.622 9.66406C125.398 9.20052 125.286 8.66146 125.286 8.04688C125.286 7.43229 125.398 6.89062 125.622 6.42187C125.849 5.95052 126.164 5.58333 126.567 5.32031C126.974 5.05469 127.448 4.92188 127.989 4.92188C128.302 4.92188 128.61 4.97396 128.915 5.07812C129.22 5.18229 129.497 5.35156 129.747 5.58594C129.997 5.81771 130.196 6.125 130.345 6.50781C130.493 6.89062 130.567 7.36198 130.567 7.92187V8.3125H125.942V7.51562H129.63C129.63 7.17708 129.562 6.875 129.427 6.60937C129.294 6.34375 129.104 6.13411 128.856 5.98047C128.612 5.82682 128.323 5.75 127.989 5.75C127.622 5.75 127.304 5.84115 127.036 6.02344C126.771 6.20312 126.566 6.4375 126.423 6.72656C126.28 7.01562 126.208 7.32552 126.208 7.65625V8.1875C126.208 8.64063 126.286 9.02474 126.442 9.33984C126.601 9.65234 126.821 9.89062 127.103 10.0547C127.384 10.2161 127.711 10.2969 128.083 10.2969C128.325 10.2969 128.544 10.263 128.739 10.1953C128.937 10.125 129.108 10.0208 129.251 9.88281C129.394 9.74219 129.505 9.56771 129.583 9.35937L130.474 9.60938C130.38 9.91146 130.222 10.1771 130.001 10.4062C129.78 10.6328 129.506 10.8099 129.181 10.9375C128.855 11.0625 128.489 11.125 128.083 11.125Z" fill="url(#paint1_linear_6_82)" fill-opacity="0.2"/>
<rect y="39" width="136" height="0.7" fill="url(#paint2_linear_6_82)"/>
<defs>
<linearGradient id="paint0_linear_6_82" x1="102.5" y1="0" x2="102.5" y2="13" gradientUnits="userSpaceOnUse">
<stop stop-color="#070000"/>
<stop offset="1" stop-color="#1E1717" stop-opacity="0.4"/>
</linearGradient>
<linearGradient id="paint1_linear_6_82" x1="102" y1="1.5" x2="102.5" y2="13" gradientUnits="userSpaceOnUse">
<stop stop-color="#625C5C"/>
<stop offset="0.890625" stop-color="#76803C" stop-opacity="0.473958"/>
<stop offset="0.958333" stop-color="#788D1E" stop-opacity="0.180556"/>
<stop offset="1" stop-color="#88A220" stop-opacity="0"/>
</linearGradient>
<linearGradient id="paint2_linear_6_82" x1="68" y1="39" x2="68" y2="39.7" gradientUnits="userSpaceOnUse">
<stop stop-color="#302727"/>
<stop offset="1" stop-color="#302727" stop-opacity="0"/>
</linearGradient>
</defs>
</svg>
